<svg width="206" height="67" viewBox="0 0 206 67" fill="none" xmlns="http://www.w3.org/2000/svg">
<path d="M0 23C0 11.9543 8.95431 3 20 3H132V28C132 39.0457 123.046 48 112 48H0V23Z" fill="white"/>
<path d="M17.695 36V13.18H25.535C27.215 13.18 28.7317 13.4133 30.085 13.88C31.4617 14.3233 32.5583 15.0817 33.375 16.155C34.1917 17.2283 34.6 18.6867 34.6 20.53C34.6 22.3033 34.1917 23.7617 33.375 24.905C32.5583 26.0483 31.4733 26.9 30.12 27.46C28.7667 27.9967 27.285 28.265 25.675 28.265H22.84V36H17.695ZM22.84 24.17H25.36C26.7833 24.17 27.8333 23.855 28.51 23.225C29.21 22.595 29.56 21.6967 29.56 20.53C29.56 19.3167 29.1867 18.4767 28.44 18.01C27.6933 17.52 26.62 17.275 25.22 17.275H22.84V24.17ZM41.3375 36.42C40.2875 36.42 39.3658 36.1867 38.5725 35.72C37.8025 35.2533 37.2075 34.6233 36.7875 33.83C36.3675 33.0367 36.1575 32.15 36.1575 31.17C36.1575 29.3033 36.9275 27.8683 38.4675 26.865C40.0075 25.8383 42.4925 25.15 45.9225 24.8C45.8992 24.2867 45.7825 23.855 45.5725 23.505C45.3858 23.1317 45.0942 22.8517 44.6975 22.665C44.3008 22.455 43.7992 22.35 43.1925 22.35C42.4692 22.35 41.7342 22.4783 40.9875 22.735C40.2408 22.9917 39.4358 23.365 38.5725 23.855L36.7525 20.495C37.4992 20.0283 38.2692 19.6317 39.0625 19.305C39.8558 18.955 40.6725 18.6867 41.5125 18.5C42.3758 18.3133 43.2625 18.22 44.1725 18.22C45.6658 18.22 46.9142 18.5117 47.9175 19.095C48.9442 19.655 49.7258 20.5183 50.2625 21.685C50.7992 22.8283 51.0675 24.2983 51.0675 26.095V36H46.8675L46.5175 34.215H46.3775C45.6308 34.8683 44.8492 35.405 44.0325 35.825C43.2158 36.2217 42.3175 36.42 41.3375 36.42ZM43.0525 32.395C43.6358 32.395 44.1492 32.2667 44.5925 32.01C45.0358 31.7533 45.4792 31.4033 45.9225 30.96V28.02C44.7092 28.1833 43.7408 28.3933 43.0175 28.65C42.3175 28.9067 41.8158 29.2217 41.5125 29.595C41.2325 29.945 41.0925 30.3417 41.0925 30.785C41.0925 31.3217 41.2675 31.73 41.6175 32.01C41.9908 32.2667 42.4692 32.395 43.0525 32.395ZM57.3445 42.79C56.8312 42.79 56.3762 42.755 55.9795 42.685C55.6062 42.615 55.2445 42.51 54.8945 42.37L55.8045 38.59C56.0612 38.66 56.2712 38.695 56.4345 38.695C56.6212 38.7183 56.7962 38.73 56.9595 38.73C57.8229 38.73 58.4879 38.5083 58.9545 38.065C59.4445 37.645 59.7945 37.1083 60.0045 36.455L60.2495 35.545L53.5645 18.64H58.7445L61.2295 26.095C61.4862 26.8883 61.7195 27.6933 61.9295 28.51C62.1395 29.3267 62.3612 30.1667 62.5945 31.03H62.7345C62.9212 30.2133 63.1079 29.3967 63.2945 28.58C63.5045 27.74 63.7145 26.9117 63.9245 26.095L66.0245 18.64H70.9595L64.9395 36.175C64.3795 37.6217 63.7729 38.835 63.1195 39.815C62.4895 40.795 61.7079 41.53 60.7745 42.02C59.8645 42.5333 58.7212 42.79 57.3445 42.79ZM73.6715 36V18.64H77.8715L78.2215 21.685H78.3615C78.9915 20.5183 79.7382 19.655 80.6015 19.095C81.4882 18.5117 82.3865 18.22 83.2965 18.22C83.7865 18.22 84.1948 18.255 84.5215 18.325C84.8482 18.3717 85.1282 18.4533 85.3615 18.57L84.3815 22.945C84.1015 22.875 83.8332 22.8283 83.5765 22.805C83.3198 22.7583 83.0048 22.735 82.6315 22.735C81.9782 22.735 81.2898 22.9683 80.5665 23.435C79.8665 23.9017 79.2832 24.73 78.8165 25.92V36H73.6715ZM94.73 36.42C93.26 36.42 91.8833 36.07 90.6 35.37C89.3167 34.6467 88.2667 33.6083 87.45 32.255C86.6567 30.8783 86.26 29.2333 86.26 27.32C86.26 25.4067 86.6567 23.7733 87.45 22.42C88.2667 21.0433 89.3167 20.005 90.6 19.305C91.8833 18.5817 93.26 18.22 94.73 18.22C96.1767 18.22 97.5417 18.5817 98.825 19.305C100.108 20.005 101.147 21.0433 101.94 22.42C102.757 23.7733 103.165 25.4067 103.165 27.32C103.165 29.2333 102.757 30.8783 101.94 32.255C101.147 33.6083 100.108 34.6467 98.825 35.37C97.5417 36.07 96.1767 36.42 94.73 36.42ZM94.73 32.255C95.43 32.255 96.0133 32.0567 96.48 31.66C96.97 31.2633 97.3317 30.6917 97.565 29.945C97.7983 29.1983 97.915 28.3233 97.915 27.32C97.915 26.3167 97.7983 25.4417 97.565 24.695C97.3317 23.9483 96.97 23.3767 96.48 22.98C96.0133 22.5833 95.43 22.385 94.73 22.385C94.0067 22.385 93.4117 22.5833 92.945 22.98C92.4783 23.3767 92.1283 23.9483 91.895 24.695C91.6617 25.4417 91.545 26.3167 91.545 27.32C91.545 28.3233 91.6617 29.1983 91.895 29.945C92.1283 30.6917 92.4783 31.2633 92.945 31.66C93.4117 32.0567 94.0067 32.255 94.73 32.255ZM111.414 36.385C110.247 36.385 109.314 36.1517 108.614 35.685C107.937 35.195 107.447 34.5183 107.144 33.655C106.841 32.7683 106.689 31.7417 106.689 30.575V11.5H111.834V30.785C111.834 31.345 111.927 31.73 112.114 31.94C112.324 32.1267 112.546 32.22 112.779 32.22C112.872 32.22 112.954 32.22 113.024 32.22C113.117 32.1967 113.234 32.1733 113.374 32.15L114.004 35.965C113.724 36.0817 113.362 36.175 112.919 36.245C112.499 36.3383 111.997 36.385 111.414 36.385ZM121.429 36.385C120.262 36.385 119.329 36.1517 118.629 35.685C117.952 35.195 117.462 34.5183 117.159 33.655C116.855 32.7683 116.704 31.7417 116.704 30.575V11.5H121.849V30.785C121.849 31.345 121.942 31.73 122.129 31.94C122.339 32.1267 122.56 32.22 122.794 32.22C122.887 32.22 122.969 32.22 123.039 32.22C123.132 32.1967 123.249 32.1733 123.389 32.15L124.019 35.965C123.739 36.0817 123.377 36.175 122.934 36.245C122.514 36.3383 122.012 36.385 121.429 36.385Z" fill="#044453"/>
<path d="M143.077 36L138.947 13.18H144.302L145.807 23.82C145.97 25.0333 146.122 26.2467 146.262 27.46C146.425 28.65 146.565 29.875 146.682 31.135H146.822C147.032 29.875 147.242 28.6383 147.452 27.425C147.685 26.2117 147.919 25.01 148.152 23.82L150.567 13.18H155.152L157.462 23.82C157.695 24.9867 157.929 26.1883 158.162 27.425C158.395 28.6383 158.617 29.875 158.827 31.135H158.967C159.084 29.875 159.212 28.6383 159.352 27.425C159.515 26.2117 159.667 25.01 159.807 23.82L161.417 13.18H166.457L162.362 36H155.712L153.577 25.64C153.414 24.7767 153.262 23.89 153.122 22.98C152.982 22.07 152.854 21.16 152.737 20.25H152.597C152.48 21.16 152.352 22.07 152.212 22.98C152.095 23.89 151.944 24.7767 151.757 25.64L149.622 36H143.077ZM176.974 36.42C175.317 36.42 173.824 36.0583 172.494 35.335C171.164 34.6117 170.114 33.5733 169.344 32.22C168.574 30.8667 168.189 29.2333 168.189 27.32C168.189 25.43 168.574 23.8083 169.344 22.455C170.137 21.1017 171.164 20.0633 172.424 19.34C173.684 18.5933 175.002 18.22 176.379 18.22C178.035 18.22 179.412 18.5933 180.509 19.34C181.605 20.0633 182.422 21.055 182.959 22.315C183.495 23.575 183.764 24.9867 183.764 26.55C183.764 26.9933 183.74 27.4367 183.694 27.88C183.647 28.3 183.6 28.6383 183.554 28.895H172.179L172.109 25.325H179.354C179.354 24.415 179.132 23.6683 178.689 23.085C178.245 22.4783 177.51 22.175 176.484 22.175C175.924 22.175 175.375 22.3267 174.839 22.63C174.302 22.9333 173.859 23.4583 173.509 24.205C173.159 24.9517 172.995 25.99 173.019 27.32C173.042 28.6267 173.275 29.6533 173.719 30.4C174.185 31.1467 174.769 31.6833 175.469 32.01C176.169 32.3133 176.904 32.465 177.674 32.465C178.35 32.465 178.992 32.3717 179.599 32.185C180.229 31.975 180.847 31.695 181.454 31.345L183.134 34.495C182.27 35.1017 181.29 35.58 180.194 35.93C179.097 36.2567 178.024 36.42 176.974 36.42ZM196.419 36.42C195.649 36.42 194.879 36.2333 194.109 35.86C193.339 35.4633 192.604 34.8917 191.904 34.145H191.764L191.344 36H187.319V11.465H192.464V17.485L192.324 20.145C192.977 19.5383 193.701 19.0717 194.494 18.745C195.287 18.395 196.092 18.22 196.909 18.22C198.309 18.22 199.522 18.5817 200.549 19.305C201.576 20.0283 202.357 21.055 202.894 22.385C203.454 23.6917 203.734 25.2317 203.734 27.005C203.734 28.9883 203.384 30.6917 202.684 32.115C201.984 33.515 201.074 34.5883 199.954 35.335C198.857 36.0583 197.679 36.42 196.419 36.42ZM195.229 32.22C195.812 32.22 196.349 32.045 196.839 31.695C197.352 31.345 197.749 30.7967 198.029 30.05C198.309 29.28 198.449 28.3 198.449 27.11C198.449 26.06 198.332 25.1967 198.099 24.52C197.889 23.82 197.562 23.295 197.119 22.945C196.676 22.595 196.116 22.42 195.439 22.42C194.926 22.42 194.424 22.5483 193.934 22.805C193.467 23.0383 192.977 23.435 192.464 23.995V31.1C192.907 31.4967 193.374 31.7883 193.864 31.975C194.354 32.1383 194.809 32.22 195.229 32.22Z" fill="white"/>
<path d="M15.036 62L17.7 54.128H18.828L21.492 62H20.436L19.056 57.596C18.912 57.156 18.776 56.72 18.648 56.288C18.52 55.848 18.392 55.4 18.264 54.944H18.216C18.096 55.4 17.972 55.848 17.844 56.288C17.716 56.72 17.58 57.156 17.436 57.596L16.044 62H15.036ZM16.428 59.6V58.808H20.064V59.6H16.428ZM27.218 62.144C26.698 62.144 26.23 62.024 25.814 61.784C25.398 61.544 25.07 61.196 24.83 60.74C24.59 60.284 24.47 59.736 24.47 59.096C24.47 58.44 24.598 57.884 24.854 57.428C25.118 56.972 25.462 56.624 25.886 56.384C26.318 56.144 26.782 56.024 27.278 56.024C27.662 56.024 27.99 56.088 28.262 56.216C28.542 56.344 28.782 56.508 28.982 56.708L28.49 57.32C28.346 57.176 28.174 57.064 27.974 56.984C27.782 56.896 27.562 56.852 27.314 56.852C26.97 56.852 26.658 56.948 26.378 57.14C26.106 57.324 25.89 57.584 25.73 57.92C25.57 58.256 25.49 58.648 25.49 59.096C25.49 59.536 25.566 59.924 25.718 60.26C25.87 60.596 26.082 60.86 26.354 61.052C26.626 61.236 26.942 61.328 27.302 61.328C27.574 61.328 27.826 61.276 28.058 61.172C28.29 61.068 28.49 60.936 28.658 60.776L29.09 61.376C28.842 61.608 28.562 61.796 28.25 61.94C27.938 62.076 27.594 62.144 27.218 62.144ZM31.4186 62.108C31.1706 62.108 30.9706 62.06 30.8186 61.964C30.6666 61.86 30.5546 61.712 30.4826 61.52C30.4106 61.32 30.3746 61.08 30.3746 60.8V53.456H31.3586V60.872C31.3586 61.032 31.3866 61.144 31.4426 61.208C31.4986 61.264 31.5666 61.292 31.6466 61.292C31.6786 61.292 31.7066 61.292 31.7306 61.292C31.7626 61.284 31.8026 61.276 31.8506 61.268L31.9946 62.012C31.9226 62.036 31.8386 62.056 31.7426 62.072C31.6546 62.096 31.5466 62.108 31.4186 62.108ZM35.7012 62.144C35.2292 62.144 34.7852 62.024 34.3692 61.784C33.9612 61.544 33.6292 61.196 33.3732 60.74C33.1252 60.284 33.0012 59.736 33.0012 59.096C33.0012 58.44 33.1252 57.884 33.3732 57.428C33.6292 56.972 33.9612 56.624 34.3692 56.384C34.7852 56.144 35.2292 56.024 35.7012 56.024C36.1812 56.024 36.6252 56.144 37.0332 56.384C37.4412 56.624 37.7692 56.972 38.0172 57.428C38.2732 57.884 38.4012 58.44 38.4012 59.096C38.4012 59.736 38.2732 60.284 38.0172 60.74C37.7692 61.196 37.4412 61.544 37.0332 61.784C36.6252 62.024 36.1812 62.144 35.7012 62.144ZM35.7012 61.328C36.0372 61.328 36.3332 61.236 36.5892 61.052C36.8452 60.86 37.0412 60.596 37.1772 60.26C37.3132 59.924 37.3812 59.536 37.3812 59.096C37.3812 58.648 37.3132 58.256 37.1772 57.92C37.0412 57.576 36.8452 57.312 36.5892 57.128C36.3332 56.936 36.0372 56.84 35.7012 56.84C35.3652 56.84 35.0692 56.936 34.8132 57.128C34.5652 57.312 34.3692 57.576 34.2252 57.92C34.0892 58.256 34.0212 58.648 34.0212 59.096C34.0212 59.536 34.0892 59.924 34.2252 60.26C34.3692 60.596 34.5652 60.86 34.8132 61.052C35.0692 61.236 35.3652 61.328 35.7012 61.328ZM41.6411 62.144C41.0251 62.144 40.5731 61.952 40.2851 61.568C40.0051 61.176 39.8651 60.608 39.8651 59.864V56.168H40.8491V59.732C40.8491 60.276 40.9331 60.672 41.1011 60.92C41.2771 61.16 41.5571 61.28 41.9411 61.28C42.2371 61.28 42.5011 61.204 42.7331 61.052C42.9731 60.892 43.2331 60.644 43.5131 60.308V56.168H44.4971V62H43.6811L43.5971 61.088H43.5611C43.2971 61.408 43.0091 61.664 42.6971 61.856C42.3931 62.048 42.0411 62.144 41.6411 62.144ZM48.4565 62.144C47.7205 62.144 47.1325 61.88 46.6925 61.352C46.2605 60.816 46.0445 60.064 46.0445 59.096C46.0445 58.464 46.1605 57.92 46.3925 57.464C46.6325 57 46.9445 56.644 47.3285 56.396C47.7125 56.148 48.1285 56.024 48.5765 56.024C48.9205 56.024 49.2125 56.084 49.4525 56.204C49.7005 56.316 49.9525 56.48 50.2085 56.696L50.1605 55.7V53.456H51.1565V62H50.3405L50.2565 61.316H50.2205C49.9965 61.54 49.7325 61.736 49.4285 61.904C49.1245 62.064 48.8005 62.144 48.4565 62.144ZM48.6725 61.316C48.9445 61.316 49.2005 61.248 49.4405 61.112C49.6805 60.976 49.9205 60.776 50.1605 60.512V57.464C49.9205 57.24 49.6845 57.084 49.4525 56.996C49.2205 56.9 48.9845 56.852 48.7445 56.852C48.4325 56.852 48.1485 56.948 47.8925 57.14C47.6445 57.324 47.4445 57.584 47.2925 57.92C47.1405 58.248 47.0645 58.636 47.0645 59.084C47.0645 59.78 47.2045 60.328 47.4845 60.728C47.7645 61.12 48.1605 61.316 48.6725 61.316ZM52.6287 59.372V58.616H55.3887V59.372H52.6287ZM59.4273 62.144C59.1553 62.144 58.8753 62.08 58.5873 61.952C58.2993 61.816 58.0233 61.632 57.7593 61.4H57.7233L57.6393 62H56.8473V53.456H57.8313V55.784L57.8073 56.84C58.0713 56.608 58.3593 56.416 58.6713 56.264C58.9913 56.104 59.3113 56.024 59.6313 56.024C60.1353 56.024 60.5593 56.148 60.9033 56.396C61.2473 56.636 61.5073 56.98 61.6833 57.428C61.8593 57.868 61.9473 58.388 61.9473 58.988C61.9473 59.652 61.8273 60.22 61.5873 60.692C61.3553 61.164 61.0473 61.524 60.6633 61.772C60.2793 62.02 59.8673 62.144 59.4273 62.144ZM59.2593 61.316C59.5793 61.316 59.8633 61.224 60.1113 61.04C60.3673 60.856 60.5673 60.592 60.7113 60.248C60.8553 59.896 60.9273 59.48 60.9273 59C60.9273 58.576 60.8753 58.204 60.7713 57.884C60.6673 57.556 60.5033 57.304 60.2793 57.128C60.0553 56.944 59.7593 56.852 59.3913 56.852C59.1513 56.852 58.8993 56.92 58.6353 57.056C58.3793 57.184 58.1113 57.38 57.8313 57.644V60.704C58.0873 60.928 58.3393 61.088 58.5873 61.184C58.8433 61.272 59.0673 61.316 59.2593 61.316ZM64.66 62.144C64.34 62.144 64.048 62.08 63.784 61.952C63.528 61.816 63.324 61.628 63.172 61.388C63.02 61.14 62.944 60.84 62.944 60.488C62.944 59.832 63.232 59.336 63.808 59C64.384 58.664 65.296 58.428 66.544 58.292C66.536 58.052 66.496 57.82 66.424 57.596C66.36 57.372 66.24 57.192 66.064 57.056C65.888 56.92 65.644 56.852 65.332 56.852C64.996 56.852 64.68 56.916 64.384 57.044C64.088 57.164 63.824 57.3 63.592 57.452L63.208 56.78C63.384 56.66 63.592 56.544 63.832 56.432C64.072 56.312 64.332 56.216 64.612 56.144C64.892 56.064 65.188 56.024 65.5 56.024C65.972 56.024 66.356 56.124 66.652 56.324C66.956 56.516 67.176 56.792 67.312 57.152C67.456 57.512 67.528 57.936 67.528 58.424V62H66.712L66.628 61.304H66.592C66.312 61.536 66.012 61.736 65.692 61.904C65.372 62.064 65.028 62.144 64.66 62.144ZM64.936 61.328C65.224 61.328 65.492 61.264 65.74 61.136C65.996 61.008 66.264 60.82 66.544 60.572V59C65.888 59.08 65.368 59.184 64.984 59.312C64.608 59.432 64.336 59.584 64.168 59.768C64 59.952 63.916 60.172 63.916 60.428C63.916 60.748 64.016 60.98 64.216 61.124C64.416 61.26 64.656 61.328 64.936 61.328ZM70.8869 62.144C70.4629 62.144 70.0589 62.072 69.6749 61.928C69.2989 61.776 68.9789 61.568 68.7149 61.304L69.1709 60.728C69.4269 60.936 69.6909 61.096 69.9629 61.208C70.2429 61.32 70.5629 61.376 70.9229 61.376C71.3069 61.376 71.5949 61.288 71.7869 61.112C71.9789 60.928 72.0749 60.712 72.0749 60.464C72.0749 60.264 72.0069 60.1 71.8709 59.972C71.7429 59.836 71.5789 59.724 71.3789 59.636C71.1869 59.54 70.9789 59.452 70.7549 59.372C70.4669 59.268 70.1909 59.148 69.9269 59.012C69.6629 58.868 69.4469 58.692 69.2789 58.484C69.1189 58.268 69.0389 58 69.0389 57.68C69.0389 57.208 69.2149 56.816 69.5669 56.504C69.9269 56.184 70.4229 56.024 71.0549 56.024C71.4149 56.024 71.7509 56.088 72.0629 56.216C72.3749 56.336 72.6429 56.492 72.8669 56.684L72.4109 57.248C72.2029 57.104 71.9909 56.992 71.7749 56.912C71.5589 56.832 71.3189 56.792 71.0549 56.792C70.6869 56.792 70.4149 56.876 70.2389 57.044C70.0709 57.212 69.9869 57.408 69.9869 57.632C69.9869 57.808 70.0389 57.956 70.1429 58.076C70.2469 58.188 70.3909 58.288 70.5749 58.376C70.7669 58.464 70.9829 58.548 71.2229 58.628C71.5269 58.74 71.8149 58.868 72.0869 59.012C72.3669 59.148 72.5909 59.328 72.7589 59.552C72.9349 59.768 73.0229 60.052 73.0229 60.404C73.0229 60.724 72.9389 61.016 72.7709 61.28C72.6109 61.536 72.3709 61.744 72.0509 61.904C71.7389 62.064 71.3509 62.144 70.8869 62.144ZM76.7543 62.144C76.2343 62.144 75.7583 62.024 75.3263 61.784C74.9023 61.536 74.5663 61.188 74.3183 60.74C74.0703 60.284 73.9463 59.732 73.9463 59.084C73.9463 58.452 74.0743 57.908 74.3303 57.452C74.5863 56.996 74.9143 56.644 75.3143 56.396C75.7143 56.148 76.1383 56.024 76.5863 56.024C77.0823 56.024 77.5023 56.14 77.8463 56.372C78.1983 56.596 78.4623 56.912 78.6383 57.32C78.8143 57.728 78.9023 58.208 78.9023 58.76C78.9023 58.864 78.8983 58.964 78.8903 59.06C78.8903 59.156 78.8783 59.252 78.8543 59.348H74.6543V58.568H78.0143C78.0143 58.008 77.8903 57.58 77.6423 57.284C77.4023 56.98 77.0543 56.828 76.5983 56.828C76.3343 56.828 76.0743 56.904 75.8183 57.056C75.5623 57.2 75.3503 57.436 75.1823 57.764C75.0223 58.092 74.9423 58.528 74.9423 59.072C74.9423 59.568 75.0263 59.984 75.1943 60.32C75.3703 60.656 75.6063 60.912 75.9023 61.088C76.1983 61.256 76.5223 61.34 76.8743 61.34C77.1543 61.34 77.4143 61.3 77.6543 61.22C77.9023 61.14 78.1263 61.032 78.3263 60.896L78.6863 61.544C78.4303 61.72 78.1423 61.864 77.8223 61.976C77.5103 62.088 77.1543 62.144 76.7543 62.144ZM82.3354 62.144C81.5994 62.144 81.0114 61.88 80.5714 61.352C80.1394 60.816 79.9234 60.064 79.9234 59.096C79.9234 58.464 80.0394 57.92 80.2714 57.464C80.5114 57 80.8234 56.644 81.2074 56.396C81.5914 56.148 82.0074 56.024 82.4554 56.024C82.7994 56.024 83.0914 56.084 83.3314 56.204C83.5794 56.316 83.8314 56.48 84.0874 56.696L84.0394 55.7V53.456H85.0354V62H84.2194L84.1354 61.316H84.0994C83.8754 61.54 83.6114 61.736 83.3074 61.904C83.0034 62.064 82.6794 62.144 82.3354 62.144ZM82.5514 61.316C82.8234 61.316 83.0794 61.248 83.3194 61.112C83.5594 60.976 83.7994 60.776 84.0394 60.512V57.464C83.7994 57.24 83.5634 57.084 83.3314 56.996C83.0994 56.9 82.8634 56.852 82.6234 56.852C82.3114 56.852 82.0274 56.948 81.7714 57.14C81.5234 57.324 81.3234 57.584 81.1714 57.92C81.0194 58.248 80.9434 58.636 80.9434 59.084C80.9434 59.78 81.0834 60.328 81.3634 60.728C81.6434 61.12 82.0394 61.316 82.5514 61.316ZM89.402 64.46V56.168H90.218L90.302 56.84H90.338C90.602 56.616 90.894 56.424 91.214 56.264C91.534 56.104 91.862 56.024 92.198 56.024C92.694 56.024 93.114 56.148 93.458 56.396C93.802 56.636 94.062 56.98 94.238 57.428C94.414 57.868 94.502 58.392 94.502 59C94.502 59.656 94.382 60.22 94.142 60.692C93.91 61.164 93.602 61.524 93.218 61.772C92.834 62.02 92.422 62.144 91.982 62.144C91.718 62.144 91.45 62.084 91.178 61.964C90.906 61.844 90.634 61.68 90.362 61.472L90.386 62.492V64.46H89.402ZM91.814 61.316C92.134 61.316 92.418 61.224 92.666 61.04C92.922 60.856 93.122 60.592 93.266 60.248C93.41 59.896 93.482 59.48 93.482 59C93.482 58.576 93.43 58.204 93.326 57.884C93.222 57.556 93.058 57.304 92.834 57.128C92.61 56.944 92.314 56.852 91.946 56.852C91.706 56.852 91.458 56.92 91.202 57.056C90.946 57.184 90.674 57.38 90.386 57.644V60.704C90.658 60.928 90.914 61.088 91.154 61.184C91.402 61.272 91.622 61.316 91.814 61.316ZM97.2382 62.144C96.9182 62.144 96.6262 62.08 96.3622 61.952C96.1062 61.816 95.9022 61.628 95.7502 61.388C95.5982 61.14 95.5222 60.84 95.5222 60.488C95.5222 59.832 95.8102 59.336 96.3862 59C96.9622 58.664 97.8742 58.428 99.1222 58.292C99.1142 58.052 99.0742 57.82 99.0022 57.596C98.9382 57.372 98.8182 57.192 98.6422 57.056C98.4662 56.92 98.2222 56.852 97.9102 56.852C97.5742 56.852 97.2582 56.916 96.9622 57.044C96.6662 57.164 96.4022 57.3 96.1702 57.452L95.7862 56.78C95.9622 56.66 96.1702 56.544 96.4102 56.432C96.6502 56.312 96.9102 56.216 97.1902 56.144C97.4702 56.064 97.7662 56.024 98.0782 56.024C98.5502 56.024 98.9342 56.124 99.2302 56.324C99.5342 56.516 99.7542 56.792 99.8902 57.152C100.034 57.512 100.106 57.936 100.106 58.424V62H99.2902L99.2062 61.304H99.1702C98.8902 61.536 98.5902 61.736 98.2702 61.904C97.9502 62.064 97.6062 62.144 97.2382 62.144ZM97.5142 61.328C97.8022 61.328 98.0702 61.264 98.3182 61.136C98.5742 61.008 98.8422 60.82 99.1222 60.572V59C98.4662 59.08 97.9462 59.184 97.5622 59.312C97.1862 59.432 96.9142 59.584 96.7462 59.768C96.5782 59.952 96.4942 60.172 96.4942 60.428C96.4942 60.748 96.5942 60.98 96.7942 61.124C96.9942 61.26 97.2342 61.328 97.5142 61.328ZM102.037 64.508C101.909 64.508 101.785 64.496 101.665 64.472C101.553 64.448 101.449 64.42 101.353 64.388L101.569 63.62C101.641 63.644 101.713 63.66 101.785 63.668C101.857 63.684 101.925 63.692 101.989 63.692C102.325 63.692 102.597 63.572 102.805 63.332C103.021 63.1 103.189 62.804 103.309 62.444L103.441 62.012L101.101 56.168H102.121L103.309 59.396C103.405 59.644 103.501 59.912 103.597 60.2C103.693 60.488 103.785 60.768 103.873 61.04H103.921C104.009 60.768 104.093 60.492 104.173 60.212C104.261 59.924 104.341 59.652 104.413 59.396L105.457 56.168H106.417L104.221 62.48C104.085 62.864 103.921 63.208 103.729 63.512C103.537 63.824 103.305 64.068 103.033 64.244C102.761 64.42 102.429 64.508 102.037 64.508ZM107.543 62V56.168H108.359L108.443 57.224H108.479C108.671 56.856 108.911 56.564 109.199 56.348C109.487 56.132 109.799 56.024 110.135 56.024C110.263 56.024 110.375 56.032 110.471 56.048C110.567 56.064 110.663 56.096 110.759 56.144L110.543 56.984C110.455 56.96 110.371 56.944 110.291 56.936C110.219 56.92 110.123 56.912 110.003 56.912C109.755 56.912 109.495 57.012 109.223 57.212C108.959 57.412 108.727 57.76 108.527 58.256V62H107.543ZM113.854 62.144C113.382 62.144 112.938 62.024 112.522 61.784C112.114 61.544 111.782 61.196 111.526 60.74C111.278 60.284 111.154 59.736 111.154 59.096C111.154 58.44 111.278 57.884 111.526 57.428C111.782 56.972 112.114 56.624 112.522 56.384C112.938 56.144 113.382 56.024 113.854 56.024C114.334 56.024 114.778 56.144 115.186 56.384C115.594 56.624 115.922 56.972 116.17 57.428C116.426 57.884 116.554 58.44 116.554 59.096C116.554 59.736 116.426 60.284 116.17 60.74C115.922 61.196 115.594 61.544 115.186 61.784C114.778 62.024 114.334 62.144 113.854 62.144ZM113.854 61.328C114.19 61.328 114.486 61.236 114.742 61.052C114.998 60.86 115.194 60.596 115.33 60.26C115.466 59.924 115.534 59.536 115.534 59.096C115.534 58.648 115.466 58.256 115.33 57.92C115.194 57.576 114.998 57.312 114.742 57.128C114.486 56.936 114.19 56.84 113.854 56.84C113.518 56.84 113.222 56.936 112.966 57.128C112.718 57.312 112.522 57.576 112.378 57.92C112.242 58.256 112.174 58.648 112.174 59.096C112.174 59.536 112.242 59.924 112.378 60.26C112.522 60.596 112.718 60.86 112.966 61.052C113.222 61.236 113.518 61.328 113.854 61.328ZM119.133 62.108C118.885 62.108 118.685 62.06 118.533 61.964C118.381 61.86 118.269 61.712 118.197 61.52C118.125 61.32 118.089 61.08 118.089 60.8V53.456H119.073V60.872C119.073 61.032 119.101 61.144 119.157 61.208C119.213 61.264 119.281 61.292 119.361 61.292C119.393 61.292 119.421 61.292 119.445 61.292C119.477 61.284 119.517 61.276 119.565 61.268L119.709 62.012C119.637 62.036 119.553 62.056 119.457 62.072C119.369 62.096 119.261 62.108 119.133 62.108ZM122.192 62.108C121.944 62.108 121.744 62.06 121.592 61.964C121.44 61.86 121.328 61.712 121.256 61.52C121.184 61.32 121.148 61.08 121.148 60.8V53.456H122.132V60.872C122.132 61.032 122.16 61.144 122.216 61.208C122.272 61.264 122.34 61.292 122.42 61.292C122.452 61.292 122.48 61.292 122.504 61.292C122.536 61.284 122.576 61.276 122.624 61.268L122.768 62.012C122.696 62.036 122.612 62.056 122.516 62.072C122.428 62.096 122.32 62.108 122.192 62.108ZM127.953 62.144C127.633 62.144 127.341 62.08 127.077 61.952C126.821 61.816 126.617 61.628 126.465 61.388C126.313 61.14 126.237 60.84 126.237 60.488C126.237 59.832 126.525 59.336 127.101 59C127.677 58.664 128.589 58.428 129.837 58.292C129.829 58.052 129.789 57.82 129.717 57.596C129.653 57.372 129.533 57.192 129.357 57.056C129.181 56.92 128.937 56.852 128.625 56.852C128.289 56.852 127.973 56.916 127.677 57.044C127.381 57.164 127.117 57.3 126.885 57.452L126.501 56.78C126.677 56.66 126.885 56.544 127.125 56.432C127.365 56.312 127.625 56.216 127.905 56.144C128.185 56.064 128.481 56.024 128.793 56.024C129.265 56.024 129.649 56.124 129.945 56.324C130.249 56.516 130.469 56.792 130.605 57.152C130.749 57.512 130.821 57.936 130.821 58.424V62H130.005L129.921 61.304H129.885C129.605 61.536 129.305 61.736 128.985 61.904C128.665 62.064 128.321 62.144 127.953 62.144ZM128.229 61.328C128.517 61.328 128.785 61.264 129.033 61.136C129.289 61.008 129.557 60.82 129.837 60.572V59C129.181 59.08 128.661 59.184 128.277 59.312C127.901 59.432 127.629 59.584 127.461 59.768C127.293 59.952 127.209 60.172 127.209 60.428C127.209 60.748 127.309 60.98 127.509 61.124C127.709 61.26 127.949 61.328 128.229 61.328ZM132.656 64.46V56.168H133.472L133.556 56.84H133.592C133.856 56.616 134.148 56.424 134.468 56.264C134.788 56.104 135.116 56.024 135.452 56.024C135.948 56.024 136.368 56.148 136.712 56.396C137.056 56.636 137.316 56.98 137.492 57.428C137.668 57.868 137.756 58.392 137.756 59C137.756 59.656 137.636 60.22 137.396 60.692C137.164 61.164 136.856 61.524 136.472 61.772C136.088 62.02 135.676 62.144 135.236 62.144C134.972 62.144 134.704 62.084 134.432 61.964C134.16 61.844 133.888 61.68 133.616 61.472L133.64 62.492V64.46H132.656ZM135.068 61.316C135.388 61.316 135.672 61.224 135.92 61.04C136.176 60.856 136.376 60.592 136.52 60.248C136.664 59.896 136.736 59.48 136.736 59C136.736 58.576 136.684 58.204 136.58 57.884C136.476 57.556 136.312 57.304 136.088 57.128C135.864 56.944 135.568 56.852 135.2 56.852C134.96 56.852 134.712 56.92 134.456 57.056C134.2 57.184 133.928 57.38 133.64 57.644V60.704C133.912 60.928 134.168 61.088 134.408 61.184C134.656 61.272 134.876 61.316 135.068 61.316ZM139.312 64.46V56.168H140.128L140.212 56.84H140.248C140.512 56.616 140.804 56.424 141.124 56.264C141.444 56.104 141.772 56.024 142.108 56.024C142.604 56.024 143.024 56.148 143.368 56.396C143.712 56.636 143.972 56.98 144.148 57.428C144.324 57.868 144.412 58.392 144.412 59C144.412 59.656 144.292 60.22 144.052 60.692C143.82 61.164 143.512 61.524 143.128 61.772C142.744 62.02 142.332 62.144 141.892 62.144C141.628 62.144 141.36 62.084 141.088 61.964C140.816 61.844 140.544 61.68 140.272 61.472L140.296 62.492V64.46H139.312ZM141.724 61.316C142.044 61.316 142.328 61.224 142.576 61.04C142.832 60.856 143.032 60.592 143.176 60.248C143.32 59.896 143.392 59.48 143.392 59C143.392 58.576 143.34 58.204 143.236 57.884C143.132 57.556 142.968 57.304 142.744 57.128C142.52 56.944 142.224 56.852 141.856 56.852C141.616 56.852 141.368 56.92 141.112 57.056C140.856 57.184 140.584 57.38 140.296 57.644V60.704C140.568 60.928 140.824 61.088 141.064 61.184C141.312 61.272 141.532 61.316 141.724 61.316ZM147.012 62.108C146.764 62.108 146.564 62.06 146.412 61.964C146.26 61.86 146.148 61.712 146.076 61.52C146.004 61.32 145.968 61.08 145.968 60.8V53.456H146.952V60.872C146.952 61.032 146.98 61.144 147.036 61.208C147.092 61.264 147.16 61.292 147.24 61.292C147.272 61.292 147.3 61.292 147.324 61.292C147.356 61.284 147.396 61.276 147.444 61.268L147.588 62.012C147.516 62.036 147.432 62.056 147.336 62.072C147.248 62.096 147.14 62.108 147.012 62.108ZM149.027 62V56.168H150.011V62H149.027ZM149.519 54.968C149.327 54.968 149.167 54.908 149.039 54.788C148.919 54.668 148.859 54.512 148.859 54.32C148.859 54.128 148.919 53.972 149.039 53.852C149.167 53.732 149.327 53.672 149.519 53.672C149.711 53.672 149.867 53.732 149.987 53.852C150.115 53.972 150.179 54.128 150.179 54.32C150.179 54.512 150.115 54.668 149.987 54.788C149.867 54.908 149.711 54.968 149.519 54.968ZM154.296 62.144C153.776 62.144 153.308 62.024 152.892 61.784C152.476 61.544 152.148 61.196 151.908 60.74C151.668 60.284 151.548 59.736 151.548 59.096C151.548 58.44 151.676 57.884 151.932 57.428C152.196 56.972 152.54 56.624 152.964 56.384C153.396 56.144 153.86 56.024 154.356 56.024C154.74 56.024 155.068 56.088 155.34 56.216C155.62 56.344 155.86 56.508 156.06 56.708L155.568 57.32C155.424 57.176 155.252 57.064 155.052 56.984C154.86 56.896 154.64 56.852 154.392 56.852C154.048 56.852 153.736 56.948 153.456 57.14C153.184 57.324 152.968 57.584 152.808 57.92C152.648 58.256 152.568 58.648 152.568 59.096C152.568 59.536 152.644 59.924 152.796 60.26C152.948 60.596 153.16 60.86 153.432 61.052C153.704 61.236 154.02 61.328 154.38 61.328C154.652 61.328 154.904 61.276 155.136 61.172C155.368 61.068 155.568 60.936 155.736 60.776L156.168 61.376C155.92 61.608 155.64 61.796 155.328 61.94C155.016 62.076 154.672 62.144 154.296 62.144ZM158.68 62.144C158.36 62.144 158.068 62.08 157.804 61.952C157.548 61.816 157.344 61.628 157.192 61.388C157.04 61.14 156.964 60.84 156.964 60.488C156.964 59.832 157.252 59.336 157.828 59C158.404 58.664 159.316 58.428 160.564 58.292C160.556 58.052 160.516 57.82 160.444 57.596C160.38 57.372 160.26 57.192 160.084 57.056C159.908 56.92 159.664 56.852 159.352 56.852C159.016 56.852 158.7 56.916 158.404 57.044C158.108 57.164 157.844 57.3 157.612 57.452L157.228 56.78C157.404 56.66 157.612 56.544 157.852 56.432C158.092 56.312 158.352 56.216 158.632 56.144C158.912 56.064 159.208 56.024 159.52 56.024C159.992 56.024 160.376 56.124 160.672 56.324C160.976 56.516 161.196 56.792 161.332 57.152C161.476 57.512 161.548 57.936 161.548 58.424V62H160.732L160.648 61.304H160.612C160.332 61.536 160.032 61.736 159.712 61.904C159.392 62.064 159.048 62.144 158.68 62.144ZM158.956 61.328C159.244 61.328 159.512 61.264 159.76 61.136C160.016 61.008 160.284 60.82 160.564 60.572V59C159.908 59.08 159.388 59.184 159.004 59.312C158.628 59.432 158.356 59.584 158.188 59.768C158.02 59.952 157.936 60.172 157.936 60.428C157.936 60.748 158.036 60.98 158.236 61.124C158.436 61.26 158.676 61.328 158.956 61.328ZM165.054 62.108C164.438 62.108 164.006 61.928 163.758 61.568C163.51 61.208 163.386 60.74 163.386 60.164V56.972H162.522V56.228L163.434 56.168L163.554 54.296H164.382V56.168H165.966V56.972H164.382V60.176C164.382 60.528 164.446 60.804 164.574 61.004C164.71 61.204 164.946 61.304 165.282 61.304C165.386 61.304 165.494 61.296 165.606 61.28C165.718 61.256 165.83 61.216 165.942 61.16L166.158 61.856C166.006 61.928 165.834 61.988 165.642 62.036C165.45 62.084 165.254 62.108 165.054 62.108ZM167.273 62V56.168H168.257V62H167.273ZM167.765 54.968C167.573 54.968 167.413 54.908 167.285 54.788C167.165 54.668 167.105 54.512 167.105 54.32C167.105 54.128 167.165 53.972 167.285 53.852C167.413 53.732 167.573 53.672 167.765 53.672C167.957 53.672 168.113 53.732 168.233 53.852C168.361 53.972 168.425 54.128 168.425 54.32C168.425 54.512 168.361 54.668 168.233 54.788C168.113 54.908 167.957 54.968 167.765 54.968ZM172.494 62.144C172.022 62.144 171.578 62.024 171.162 61.784C170.754 61.544 170.422 61.196 170.166 60.74C169.918 60.284 169.794 59.736 169.794 59.096C169.794 58.44 169.918 57.884 170.166 57.428C170.422 56.972 170.754 56.624 171.162 56.384C171.578 56.144 172.022 56.024 172.494 56.024C172.974 56.024 173.418 56.144 173.826 56.384C174.234 56.624 174.562 56.972 174.81 57.428C175.066 57.884 175.194 58.44 175.194 59.096C175.194 59.736 175.066 60.284 174.81 60.74C174.562 61.196 174.234 61.544 173.826 61.784C173.418 62.024 172.974 62.144 172.494 62.144ZM172.494 61.328C172.83 61.328 173.126 61.236 173.382 61.052C173.638 60.86 173.834 60.596 173.97 60.26C174.106 59.924 174.174 59.536 174.174 59.096C174.174 58.648 174.106 58.256 173.97 57.92C173.834 57.576 173.638 57.312 173.382 57.128C173.126 56.936 172.83 56.84 172.494 56.84C172.158 56.84 171.862 56.936 171.606 57.128C171.358 57.312 171.162 57.576 171.018 57.92C170.882 58.256 170.814 58.648 170.814 59.096C170.814 59.536 170.882 59.924 171.018 60.26C171.162 60.596 171.358 60.86 171.606 61.052C171.862 61.236 172.158 61.328 172.494 61.328ZM176.73 62V56.168H177.546L177.63 57.008H177.666C177.946 56.728 178.242 56.496 178.554 56.312C178.866 56.12 179.222 56.024 179.622 56.024C180.238 56.024 180.686 56.22 180.966 56.612C181.254 56.996 181.398 57.56 181.398 58.304V62H180.414V58.436C180.414 57.884 180.326 57.488 180.15 57.248C179.982 57 179.702 56.876 179.31 56.876C179.014 56.876 178.746 56.952 178.506 57.104C178.274 57.256 178.01 57.48 177.714 57.776V62H176.73ZM183.809 62.144C183.617 62.144 183.449 62.076 183.305 61.94C183.161 61.796 183.089 61.616 183.089 61.4C183.089 61.168 183.161 60.984 183.305 60.848C183.449 60.704 183.617 60.632 183.809 60.632C184.009 60.632 184.177 60.704 184.313 60.848C184.449 60.984 184.517 61.168 184.517 61.4C184.517 61.616 184.449 61.796 184.313 61.94C184.177 62.076 184.009 62.144 183.809 62.144ZM192.259 62.96V54.128H193.267V62.96H192.259ZM191.215 59.288C190.631 59.288 190.111 59.196 189.655 59.012C189.199 58.828 188.839 58.544 188.575 58.16C188.319 57.776 188.191 57.284 188.191 56.684C188.191 56.06 188.315 55.56 188.563 55.184C188.819 54.808 189.163 54.54 189.595 54.38C190.035 54.212 190.531 54.128 191.083 54.128H191.611V59.288H191.215Z" fill="white"/>
</svg>
