<svg width="204" height="64" viewBox="0 0 204 64" fill="none" xmlns="http://www.w3.org/2000/svg">
<path d="M0 23C0 11.9543 8.95431 3 20 3H132V28C132 39.0457 123.046 48 112 48H0V23Z" fill="#044453"/>
<path d="M15.695 36V13.18H23.535C25.215 13.18 26.7317 13.4133 28.085 13.88C29.4617 14.3233 30.5583 15.0817 31.375 16.155C32.1917 17.2283 32.6 18.6867 32.6 20.53C32.6 22.3033 32.1917 23.7617 31.375 24.905C30.5583 26.0483 29.4733 26.9 28.12 27.46C26.7667 27.9967 25.285 28.265 23.675 28.265H20.84V36H15.695ZM20.84 24.17H23.36C24.7833 24.17 25.8333 23.855 26.51 23.225C27.21 22.595 27.56 21.6967 27.56 20.53C27.56 19.3167 27.1867 18.4767 26.44 18.01C25.6933 17.52 24.62 17.275 23.22 17.275H20.84V24.17ZM39.3375 36.42C38.2875 36.42 37.3658 36.1867 36.5725 35.72C35.8025 35.2533 35.2075 34.6233 34.7875 33.83C34.3675 33.0367 34.1575 32.15 34.1575 31.17C34.1575 29.3033 34.9275 27.8683 36.4675 26.865C38.0075 25.8383 40.4925 25.15 43.9225 24.8C43.8992 24.2867 43.7825 23.855 43.5725 23.505C43.3858 23.1317 43.0942 22.8517 42.6975 22.665C42.3008 22.455 41.7992 22.35 41.1925 22.35C40.4692 22.35 39.7342 22.4783 38.9875 22.735C38.2408 22.9917 37.4358 23.365 36.5725 23.855L34.7525 20.495C35.4992 20.0283 36.2692 19.6317 37.0625 19.305C37.8558 18.955 38.6725 18.6867 39.5125 18.5C40.3758 18.3133 41.2625 18.22 42.1725 18.22C43.6658 18.22 44.9142 18.5117 45.9175 19.095C46.9442 19.655 47.7258 20.5183 48.2625 21.685C48.7992 22.8283 49.0675 24.2983 49.0675 26.095V36H44.8675L44.5175 34.215H44.3775C43.6308 34.8683 42.8492 35.405 42.0325 35.825C41.2158 36.2217 40.3175 36.42 39.3375 36.42ZM41.0525 32.395C41.6358 32.395 42.1492 32.2667 42.5925 32.01C43.0358 31.7533 43.4792 31.4033 43.9225 30.96V28.02C42.7092 28.1833 41.7408 28.3933 41.0175 28.65C40.3175 28.9067 39.8158 29.2217 39.5125 29.595C39.2325 29.945 39.0925 30.3417 39.0925 30.785C39.0925 31.3217 39.2675 31.73 39.6175 32.01C39.9908 32.2667 40.4692 32.395 41.0525 32.395ZM55.3445 42.79C54.8312 42.79 54.3762 42.755 53.9795 42.685C53.6062 42.615 53.2445 42.51 52.8945 42.37L53.8045 38.59C54.0612 38.66 54.2712 38.695 54.4345 38.695C54.6212 38.7183 54.7962 38.73 54.9595 38.73C55.8229 38.73 56.4879 38.5083 56.9545 38.065C57.4445 37.645 57.7945 37.1083 58.0045 36.455L58.2495 35.545L51.5645 18.64H56.7445L59.2295 26.095C59.4862 26.8883 59.7195 27.6933 59.9295 28.51C60.1395 29.3267 60.3612 30.1667 60.5945 31.03H60.7345C60.9212 30.2133 61.1079 29.3967 61.2945 28.58C61.5045 27.74 61.7145 26.9117 61.9245 26.095L64.0245 18.64H68.9595L62.9395 36.175C62.3795 37.6217 61.7729 38.835 61.1195 39.815C60.4895 40.795 59.7079 41.53 58.7745 42.02C57.8645 42.5333 56.7212 42.79 55.3445 42.79ZM71.6715 36V18.64H75.8715L76.2215 21.685H76.3615C76.9915 20.5183 77.7382 19.655 78.6015 19.095C79.4882 18.5117 80.3865 18.22 81.2965 18.22C81.7865 18.22 82.1948 18.255 82.5215 18.325C82.8482 18.3717 83.1282 18.4533 83.3615 18.57L82.3815 22.945C82.1015 22.875 81.8332 22.8283 81.5765 22.805C81.3198 22.7583 81.0048 22.735 80.6315 22.735C79.9782 22.735 79.2898 22.9683 78.5665 23.435C77.8665 23.9017 77.2832 24.73 76.8165 25.92V36H71.6715ZM92.73 36.42C91.26 36.42 89.8833 36.07 88.6 35.37C87.3167 34.6467 86.2667 33.6083 85.45 32.255C84.6567 30.8783 84.26 29.2333 84.26 27.32C84.26 25.4067 84.6567 23.7733 85.45 22.42C86.2667 21.0433 87.3167 20.005 88.6 19.305C89.8833 18.5817 91.26 18.22 92.73 18.22C94.1767 18.22 95.5417 18.5817 96.825 19.305C98.1083 20.005 99.1467 21.0433 99.94 22.42C100.757 23.7733 101.165 25.4067 101.165 27.32C101.165 29.2333 100.757 30.8783 99.94 32.255C99.1467 33.6083 98.1083 34.6467 96.825 35.37C95.5417 36.07 94.1767 36.42 92.73 36.42ZM92.73 32.255C93.43 32.255 94.0133 32.0567 94.48 31.66C94.97 31.2633 95.3317 30.6917 95.565 29.945C95.7983 29.1983 95.915 28.3233 95.915 27.32C95.915 26.3167 95.7983 25.4417 95.565 24.695C95.3317 23.9483 94.97 23.3767 94.48 22.98C94.0133 22.5833 93.43 22.385 92.73 22.385C92.0067 22.385 91.4117 22.5833 90.945 22.98C90.4783 23.3767 90.1283 23.9483 89.895 24.695C89.6617 25.4417 89.545 26.3167 89.545 27.32C89.545 28.3233 89.6617 29.1983 89.895 29.945C90.1283 30.6917 90.4783 31.2633 90.945 31.66C91.4117 32.0567 92.0067 32.255 92.73 32.255ZM109.414 36.385C108.247 36.385 107.314 36.1517 106.614 35.685C105.937 35.195 105.447 34.5183 105.144 33.655C104.841 32.7683 104.689 31.7417 104.689 30.575V11.5H109.834V30.785C109.834 31.345 109.927 31.73 110.114 31.94C110.324 32.1267 110.546 32.22 110.779 32.22C110.872 32.22 110.954 32.22 111.024 32.22C111.117 32.1967 111.234 32.1733 111.374 32.15L112.004 35.965C111.724 36.0817 111.362 36.175 110.919 36.245C110.499 36.3383 109.997 36.385 109.414 36.385ZM119.429 36.385C118.262 36.385 117.329 36.1517 116.629 35.685C115.952 35.195 115.462 34.5183 115.159 33.655C114.855 32.7683 114.704 31.7417 114.704 30.575V11.5H119.849V30.785C119.849 31.345 119.942 31.73 120.129 31.94C120.339 32.1267 120.56 32.22 120.794 32.22C120.887 32.22 120.969 32.22 121.039 32.22C121.132 32.1967 121.249 32.1733 121.389 32.15L122.019 35.965C121.739 36.0817 121.377 36.175 120.934 36.245C120.514 36.3383 120.012 36.385 119.429 36.385Z" fill="white"/>
<path d="M141.077 36L136.947 13.18H142.302L143.807 23.82C143.97 25.0333 144.122 26.2467 144.262 27.46C144.425 28.65 144.565 29.875 144.682 31.135H144.822C145.032 29.875 145.242 28.6383 145.452 27.425C145.685 26.2117 145.919 25.01 146.152 23.82L148.567 13.18H153.152L155.462 23.82C155.695 24.9867 155.929 26.1883 156.162 27.425C156.395 28.6383 156.617 29.875 156.827 31.135H156.967C157.084 29.875 157.212 28.6383 157.352 27.425C157.515 26.2117 157.667 25.01 157.807 23.82L159.417 13.18H164.457L160.362 36H153.712L151.577 25.64C151.414 24.7767 151.262 23.89 151.122 22.98C150.982 22.07 150.854 21.16 150.737 20.25H150.597C150.48 21.16 150.352 22.07 150.212 22.98C150.095 23.89 149.944 24.7767 149.757 25.64L147.622 36H141.077ZM174.974 36.42C173.317 36.42 171.824 36.0583 170.494 35.335C169.164 34.6117 168.114 33.5733 167.344 32.22C166.574 30.8667 166.189 29.2333 166.189 27.32C166.189 25.43 166.574 23.8083 167.344 22.455C168.137 21.1017 169.164 20.0633 170.424 19.34C171.684 18.5933 173.002 18.22 174.379 18.22C176.035 18.22 177.412 18.5933 178.509 19.34C179.605 20.0633 180.422 21.055 180.959 22.315C181.495 23.575 181.764 24.9867 181.764 26.55C181.764 26.9933 181.74 27.4367 181.694 27.88C181.647 28.3 181.6 28.6383 181.554 28.895H170.179L170.109 25.325H177.354C177.354 24.415 177.132 23.6683 176.689 23.085C176.245 22.4783 175.51 22.175 174.484 22.175C173.924 22.175 173.375 22.3267 172.839 22.63C172.302 22.9333 171.859 23.4583 171.509 24.205C171.159 24.9517 170.995 25.99 171.019 27.32C171.042 28.6267 171.275 29.6533 171.719 30.4C172.185 31.1467 172.769 31.6833 173.469 32.01C174.169 32.3133 174.904 32.465 175.674 32.465C176.35 32.465 176.992 32.3717 177.599 32.185C178.229 31.975 178.847 31.695 179.454 31.345L181.134 34.495C180.27 35.1017 179.29 35.58 178.194 35.93C177.097 36.2567 176.024 36.42 174.974 36.42ZM194.419 36.42C193.649 36.42 192.879 36.2333 192.109 35.86C191.339 35.4633 190.604 34.8917 189.904 34.145H189.764L189.344 36H185.319V11.465H190.464V17.485L190.324 20.145C190.977 19.5383 191.701 19.0717 192.494 18.745C193.287 18.395 194.092 18.22 194.909 18.22C196.309 18.22 197.522 18.5817 198.549 19.305C199.576 20.0283 200.357 21.055 200.894 22.385C201.454 23.6917 201.734 25.2317 201.734 27.005C201.734 28.9883 201.384 30.6917 200.684 32.115C199.984 33.515 199.074 34.5883 197.954 35.335C196.857 36.0583 195.679 36.42 194.419 36.42ZM193.229 32.22C193.812 32.22 194.349 32.045 194.839 31.695C195.352 31.345 195.749 30.7967 196.029 30.05C196.309 29.28 196.449 28.3 196.449 27.11C196.449 26.06 196.332 25.1967 196.099 24.52C195.889 23.82 195.562 23.295 195.119 22.945C194.676 22.595 194.116 22.42 193.439 22.42C192.926 22.42 192.424 22.5483 191.934 22.805C191.467 23.0383 190.977 23.435 190.464 23.995V31.1C190.907 31.4967 191.374 31.7883 191.864 31.975C192.354 32.1383 192.809 32.22 193.229 32.22Z" fill="#044453"/>
<g clip-path="url(#clip0_0_1)">
<path d="M192.5 51V63" stroke="#044453" stroke-width="3"/>
<path d="M8.03601 61L10.7 53.128H11.828L14.492 61H13.436L12.056 56.596C11.912 56.156 11.776 55.72 11.648 55.288C11.52 54.848 11.392 54.4 11.264 53.944H11.216C11.096 54.4 10.972 54.848 10.844 55.288C10.716 55.72 10.58 56.156 10.436 56.596L9.04401 61H8.03601ZM9.42801 58.6V57.808H13.064V58.6H9.42801ZM20.218 61.144C19.698 61.144 19.23 61.024 18.814 60.784C18.398 60.544 18.07 60.196 17.83 59.74C17.59 59.284 17.47 58.736 17.47 58.096C17.47 57.44 17.598 56.884 17.854 56.428C18.118 55.972 18.462 55.624 18.886 55.384C19.318 55.144 19.782 55.024 20.278 55.024C20.662 55.024 20.99 55.088 21.262 55.216C21.542 55.344 21.782 55.508 21.982 55.708L21.49 56.32C21.346 56.176 21.174 56.064 20.974 55.984C20.782 55.896 20.562 55.852 20.314 55.852C19.97 55.852 19.658 55.948 19.378 56.14C19.106 56.324 18.89 56.584 18.73 56.92C18.57 57.256 18.49 57.648 18.49 58.096C18.49 58.536 18.566 58.924 18.718 59.26C18.87 59.596 19.082 59.86 19.354 60.052C19.626 60.236 19.942 60.328 20.302 60.328C20.574 60.328 20.826 60.276 21.058 60.172C21.29 60.068 21.49 59.936 21.658 59.776L22.09 60.376C21.842 60.608 21.562 60.796 21.25 60.94C20.938 61.076 20.594 61.144 20.218 61.144ZM24.4186 61.108C24.1706 61.108 23.9706 61.06 23.8186 60.964C23.6666 60.86 23.5546 60.712 23.4826 60.52C23.4106 60.32 23.3746 60.08 23.3746 59.8V52.456H24.3586V59.872C24.3586 60.032 24.3866 60.144 24.4426 60.208C24.4986 60.264 24.5666 60.292 24.6466 60.292C24.6786 60.292 24.7066 60.292 24.7306 60.292C24.7626 60.284 24.8026 60.276 24.8506 60.268L24.9946 61.012C24.9226 61.036 24.8386 61.056 24.7426 61.072C24.6546 61.096 24.5466 61.108 24.4186 61.108ZM28.7012 61.144C28.2292 61.144 27.7852 61.024 27.3692 60.784C26.9612 60.544 26.6292 60.196 26.3732 59.74C26.1252 59.284 26.0012 58.736 26.0012 58.096C26.0012 57.44 26.1252 56.884 26.3732 56.428C26.6292 55.972 26.9612 55.624 27.3692 55.384C27.7852 55.144 28.2292 55.024 28.7012 55.024C29.1812 55.024 29.6252 55.144 30.0332 55.384C30.4412 55.624 30.7692 55.972 31.0172 56.428C31.2732 56.884 31.4012 57.44 31.4012 58.096C31.4012 58.736 31.2732 59.284 31.0172 59.74C30.7692 60.196 30.4412 60.544 30.0332 60.784C29.6252 61.024 29.1812 61.144 28.7012 61.144ZM28.7012 60.328C29.0372 60.328 29.3332 60.236 29.5892 60.052C29.8452 59.86 30.0412 59.596 30.1772 59.26C30.3132 58.924 30.3812 58.536 30.3812 58.096C30.3812 57.648 30.3132 57.256 30.1772 56.92C30.0412 56.576 29.8452 56.312 29.5892 56.128C29.3332 55.936 29.0372 55.84 28.7012 55.84C28.3652 55.84 28.0692 55.936 27.8132 56.128C27.5652 56.312 27.3692 56.576 27.2252 56.92C27.0892 57.256 27.0212 57.648 27.0212 58.096C27.0212 58.536 27.0892 58.924 27.2252 59.26C27.3692 59.596 27.5652 59.86 27.8132 60.052C28.0692 60.236 28.3652 60.328 28.7012 60.328ZM34.6411 61.144C34.0251 61.144 33.5731 60.952 33.2851 60.568C33.0051 60.176 32.8651 59.608 32.8651 58.864V55.168H33.8491V58.732C33.8491 59.276 33.9331 59.672 34.1011 59.92C34.2771 60.16 34.5571 60.28 34.9411 60.28C35.2371 60.28 35.5011 60.204 35.7331 60.052C35.9731 59.892 36.2331 59.644 36.5131 59.308V55.168H37.4971V61H36.6811L36.5971 60.088H36.5611C36.2971 60.408 36.0091 60.664 35.6971 60.856C35.3931 61.048 35.0411 61.144 34.6411 61.144ZM41.4565 61.144C40.7205 61.144 40.1325 60.88 39.6925 60.352C39.2605 59.816 39.0445 59.064 39.0445 58.096C39.0445 57.464 39.1605 56.92 39.3925 56.464C39.6325 56 39.9445 55.644 40.3285 55.396C40.7125 55.148 41.1285 55.024 41.5765 55.024C41.9205 55.024 42.2125 55.084 42.4525 55.204C42.7005 55.316 42.9525 55.48 43.2085 55.696L43.1605 54.7V52.456H44.1565V61H43.3405L43.2565 60.316H43.2205C42.9965 60.54 42.7325 60.736 42.4285 60.904C42.1245 61.064 41.8005 61.144 41.4565 61.144ZM41.6725 60.316C41.9445 60.316 42.2005 60.248 42.4405 60.112C42.6805 59.976 42.9205 59.776 43.1605 59.512V56.464C42.9205 56.24 42.6845 56.084 42.4525 55.996C42.2205 55.9 41.9845 55.852 41.7445 55.852C41.4325 55.852 41.1485 55.948 40.8925 56.14C40.6445 56.324 40.4445 56.584 40.2925 56.92C40.1405 57.248 40.0645 57.636 40.0645 58.084C40.0645 58.78 40.2045 59.328 40.4845 59.728C40.7645 60.12 41.1605 60.316 41.6725 60.316ZM45.6287 58.372V57.616H48.3887V58.372H45.6287ZM52.4273 61.144C52.1553 61.144 51.8753 61.08 51.5873 60.952C51.2993 60.816 51.0233 60.632 50.7593 60.4H50.7233L50.6393 61H49.8473V52.456H50.8313V54.784L50.8073 55.84C51.0713 55.608 51.3593 55.416 51.6713 55.264C51.9913 55.104 52.3113 55.024 52.6313 55.024C53.1353 55.024 53.5593 55.148 53.9033 55.396C54.2473 55.636 54.5073 55.98 54.6833 56.428C54.8593 56.868 54.9473 57.388 54.9473 57.988C54.9473 58.652 54.8273 59.22 54.5873 59.692C54.3553 60.164 54.0473 60.524 53.6633 60.772C53.2793 61.02 52.8673 61.144 52.4273 61.144ZM52.2593 60.316C52.5793 60.316 52.8633 60.224 53.1113 60.04C53.3673 59.856 53.5673 59.592 53.7113 59.248C53.8553 58.896 53.9273 58.48 53.9273 58C53.9273 57.576 53.8753 57.204 53.7713 56.884C53.6673 56.556 53.5033 56.304 53.2793 56.128C53.0553 55.944 52.7593 55.852 52.3913 55.852C52.1513 55.852 51.8993 55.92 51.6353 56.056C51.3793 56.184 51.1113 56.38 50.8313 56.644V59.704C51.0873 59.928 51.3393 60.088 51.5873 60.184C51.8433 60.272 52.0673 60.316 52.2593 60.316ZM57.66 61.144C57.34 61.144 57.048 61.08 56.784 60.952C56.528 60.816 56.324 60.628 56.172 60.388C56.02 60.14 55.944 59.84 55.944 59.488C55.944 58.832 56.232 58.336 56.808 58C57.384 57.664 58.296 57.428 59.544 57.292C59.536 57.052 59.496 56.82 59.424 56.596C59.36 56.372 59.24 56.192 59.064 56.056C58.888 55.92 58.644 55.852 58.332 55.852C57.996 55.852 57.68 55.916 57.384 56.044C57.088 56.164 56.824 56.3 56.592 56.452L56.208 55.78C56.384 55.66 56.592 55.544 56.832 55.432C57.072 55.312 57.332 55.216 57.612 55.144C57.892 55.064 58.188 55.024 58.5 55.024C58.972 55.024 59.356 55.124 59.652 55.324C59.956 55.516 60.176 55.792 60.312 56.152C60.456 56.512 60.528 56.936 60.528 57.424V61H59.712L59.628 60.304H59.592C59.312 60.536 59.012 60.736 58.692 60.904C58.372 61.064 58.028 61.144 57.66 61.144ZM57.936 60.328C58.224 60.328 58.492 60.264 58.74 60.136C58.996 60.008 59.264 59.82 59.544 59.572V58C58.888 58.08 58.368 58.184 57.984 58.312C57.608 58.432 57.336 58.584 57.168 58.768C57 58.952 56.916 59.172 56.916 59.428C56.916 59.748 57.016 59.98 57.216 60.124C57.416 60.26 57.656 60.328 57.936 60.328ZM63.8869 61.144C63.4629 61.144 63.0589 61.072 62.6749 60.928C62.2989 60.776 61.9789 60.568 61.7149 60.304L62.1709 59.728C62.4269 59.936 62.6909 60.096 62.9629 60.208C63.2429 60.32 63.5629 60.376 63.9229 60.376C64.3069 60.376 64.5949 60.288 64.7869 60.112C64.9789 59.928 65.0749 59.712 65.0749 59.464C65.0749 59.264 65.0069 59.1 64.8709 58.972C64.7429 58.836 64.5789 58.724 64.3789 58.636C64.1869 58.54 63.9789 58.452 63.7549 58.372C63.4669 58.268 63.1909 58.148 62.9269 58.012C62.6629 57.868 62.4469 57.692 62.2789 57.484C62.1189 57.268 62.0389 57 62.0389 56.68C62.0389 56.208 62.2149 55.816 62.5669 55.504C62.9269 55.184 63.4229 55.024 64.0549 55.024C64.4149 55.024 64.7509 55.088 65.0629 55.216C65.3749 55.336 65.6429 55.492 65.8669 55.684L65.4109 56.248C65.2029 56.104 64.9909 55.992 64.7749 55.912C64.5589 55.832 64.3189 55.792 64.0549 55.792C63.6869 55.792 63.4149 55.876 63.2389 56.044C63.0709 56.212 62.9869 56.408 62.9869 56.632C62.9869 56.808 63.0389 56.956 63.1429 57.076C63.2469 57.188 63.3909 57.288 63.5749 57.376C63.7669 57.464 63.9829 57.548 64.2229 57.628C64.5269 57.74 64.8149 57.868 65.0869 58.012C65.3669 58.148 65.5909 58.328 65.7589 58.552C65.9349 58.768 66.0229 59.052 66.0229 59.404C66.0229 59.724 65.9389 60.016 65.7709 60.28C65.6109 60.536 65.3709 60.744 65.0509 60.904C64.7389 61.064 64.3509 61.144 63.8869 61.144ZM69.7543 61.144C69.2343 61.144 68.7583 61.024 68.3263 60.784C67.9023 60.536 67.5663 60.188 67.3183 59.74C67.0703 59.284 66.9463 58.732 66.9463 58.084C66.9463 57.452 67.0743 56.908 67.3303 56.452C67.5863 55.996 67.9143 55.644 68.3143 55.396C68.7143 55.148 69.1383 55.024 69.5863 55.024C70.0823 55.024 70.5023 55.14 70.8463 55.372C71.1983 55.596 71.4623 55.912 71.6383 56.32C71.8143 56.728 71.9023 57.208 71.9023 57.76C71.9023 57.864 71.8983 57.964 71.8903 58.06C71.8903 58.156 71.8783 58.252 71.8543 58.348H67.6543V57.568H71.0143C71.0143 57.008 70.8903 56.58 70.6423 56.284C70.4023 55.98 70.0543 55.828 69.5983 55.828C69.3343 55.828 69.0743 55.904 68.8183 56.056C68.5623 56.2 68.3503 56.436 68.1823 56.764C68.0223 57.092 67.9423 57.528 67.9423 58.072C67.9423 58.568 68.0263 58.984 68.1943 59.32C68.3703 59.656 68.6063 59.912 68.9023 60.088C69.1983 60.256 69.5223 60.34 69.8743 60.34C70.1543 60.34 70.4143 60.3 70.6543 60.22C70.9023 60.14 71.1263 60.032 71.3263 59.896L71.6863 60.544C71.4303 60.72 71.1423 60.864 70.8223 60.976C70.5103 61.088 70.1543 61.144 69.7543 61.144ZM75.3354 61.144C74.5994 61.144 74.0114 60.88 73.5714 60.352C73.1394 59.816 72.9234 59.064 72.9234 58.096C72.9234 57.464 73.0394 56.92 73.2714 56.464C73.5114 56 73.8234 55.644 74.2074 55.396C74.5914 55.148 75.0074 55.024 75.4554 55.024C75.7994 55.024 76.0914 55.084 76.3314 55.204C76.5794 55.316 76.8314 55.48 77.0874 55.696L77.0394 54.7V52.456H78.0354V61H77.2194L77.1354 60.316H77.0994C76.8754 60.54 76.6114 60.736 76.3074 60.904C76.0034 61.064 75.6794 61.144 75.3354 61.144ZM75.5514 60.316C75.8234 60.316 76.0794 60.248 76.3194 60.112C76.5594 59.976 76.7994 59.776 77.0394 59.512V56.464C76.7994 56.24 76.5634 56.084 76.3314 55.996C76.0994 55.9 75.8634 55.852 75.6234 55.852C75.3114 55.852 75.0274 55.948 74.7714 56.14C74.5234 56.324 74.3234 56.584 74.1714 56.92C74.0194 57.248 73.9434 57.636 73.9434 58.084C73.9434 58.78 74.0834 59.328 74.3634 59.728C74.6434 60.12 75.0394 60.316 75.5514 60.316ZM82.402 63.46V55.168H83.218L83.302 55.84H83.338C83.602 55.616 83.894 55.424 84.214 55.264C84.534 55.104 84.862 55.024 85.198 55.024C85.694 55.024 86.114 55.148 86.458 55.396C86.802 55.636 87.062 55.98 87.238 56.428C87.414 56.868 87.502 57.392 87.502 58C87.502 58.656 87.382 59.22 87.142 59.692C86.91 60.164 86.602 60.524 86.218 60.772C85.834 61.02 85.422 61.144 84.982 61.144C84.718 61.144 84.45 61.084 84.178 60.964C83.906 60.844 83.634 60.68 83.362 60.472L83.386 61.492V63.46H82.402ZM84.814 60.316C85.134 60.316 85.418 60.224 85.666 60.04C85.922 59.856 86.122 59.592 86.266 59.248C86.41 58.896 86.482 58.48 86.482 58C86.482 57.576 86.43 57.204 86.326 56.884C86.222 56.556 86.058 56.304 85.834 56.128C85.61 55.944 85.314 55.852 84.946 55.852C84.706 55.852 84.458 55.92 84.202 56.056C83.946 56.184 83.674 56.38 83.386 56.644V59.704C83.658 59.928 83.914 60.088 84.154 60.184C84.402 60.272 84.622 60.316 84.814 60.316ZM90.2382 61.144C89.9182 61.144 89.6262 61.08 89.3622 60.952C89.1062 60.816 88.9022 60.628 88.7502 60.388C88.5982 60.14 88.5222 59.84 88.5222 59.488C88.5222 58.832 88.8102 58.336 89.3862 58C89.9622 57.664 90.8742 57.428 92.1222 57.292C92.1142 57.052 92.0742 56.82 92.0022 56.596C91.9382 56.372 91.8182 56.192 91.6422 56.056C91.4662 55.92 91.2222 55.852 90.9102 55.852C90.5742 55.852 90.2582 55.916 89.9622 56.044C89.6662 56.164 89.4022 56.3 89.1702 56.452L88.7862 55.78C88.9622 55.66 89.1702 55.544 89.4102 55.432C89.6502 55.312 89.9102 55.216 90.1902 55.144C90.4702 55.064 90.7662 55.024 91.0782 55.024C91.5502 55.024 91.9342 55.124 92.2302 55.324C92.5342 55.516 92.7542 55.792 92.8902 56.152C93.0342 56.512 93.1062 56.936 93.1062 57.424V61H92.2902L92.2062 60.304H92.1702C91.8902 60.536 91.5902 60.736 91.2702 60.904C90.9502 61.064 90.6062 61.144 90.2382 61.144ZM90.5142 60.328C90.8022 60.328 91.0702 60.264 91.3182 60.136C91.5742 60.008 91.8422 59.82 92.1222 59.572V58C91.4662 58.08 90.9462 58.184 90.5622 58.312C90.1862 58.432 89.9142 58.584 89.7462 58.768C89.5782 58.952 89.4942 59.172 89.4942 59.428C89.4942 59.748 89.5942 59.98 89.7942 60.124C89.9942 60.26 90.2342 60.328 90.5142 60.328ZM95.037 63.508C94.909 63.508 94.785 63.496 94.665 63.472C94.553 63.448 94.449 63.42 94.353 63.388L94.569 62.62C94.641 62.644 94.713 62.66 94.785 62.668C94.857 62.684 94.925 62.692 94.989 62.692C95.325 62.692 95.597 62.572 95.805 62.332C96.021 62.1 96.189 61.804 96.309 61.444L96.441 61.012L94.101 55.168H95.121L96.309 58.396C96.405 58.644 96.501 58.912 96.597 59.2C96.693 59.488 96.785 59.768 96.873 60.04H96.921C97.009 59.768 97.093 59.492 97.173 59.212C97.261 58.924 97.341 58.652 97.413 58.396L98.457 55.168H99.417L97.221 61.48C97.085 61.864 96.921 62.208 96.729 62.512C96.537 62.824 96.305 63.068 96.033 63.244C95.761 63.42 95.429 63.508 95.037 63.508ZM100.543 61V55.168H101.359L101.443 56.224H101.479C101.671 55.856 101.911 55.564 102.199 55.348C102.487 55.132 102.799 55.024 103.135 55.024C103.263 55.024 103.375 55.032 103.471 55.048C103.567 55.064 103.663 55.096 103.759 55.144L103.543 55.984C103.455 55.96 103.371 55.944 103.291 55.936C103.219 55.92 103.123 55.912 103.003 55.912C102.755 55.912 102.495 56.012 102.223 56.212C101.959 56.412 101.727 56.76 101.527 57.256V61H100.543ZM106.854 61.144C106.382 61.144 105.938 61.024 105.522 60.784C105.114 60.544 104.782 60.196 104.526 59.74C104.278 59.284 104.154 58.736 104.154 58.096C104.154 57.44 104.278 56.884 104.526 56.428C104.782 55.972 105.114 55.624 105.522 55.384C105.938 55.144 106.382 55.024 106.854 55.024C107.334 55.024 107.778 55.144 108.186 55.384C108.594 55.624 108.922 55.972 109.17 56.428C109.426 56.884 109.554 57.44 109.554 58.096C109.554 58.736 109.426 59.284 109.17 59.74C108.922 60.196 108.594 60.544 108.186 60.784C107.778 61.024 107.334 61.144 106.854 61.144ZM106.854 60.328C107.19 60.328 107.486 60.236 107.742 60.052C107.998 59.86 108.194 59.596 108.33 59.26C108.466 58.924 108.534 58.536 108.534 58.096C108.534 57.648 108.466 57.256 108.33 56.92C108.194 56.576 107.998 56.312 107.742 56.128C107.486 55.936 107.19 55.84 106.854 55.84C106.518 55.84 106.222 55.936 105.966 56.128C105.718 56.312 105.522 56.576 105.378 56.92C105.242 57.256 105.174 57.648 105.174 58.096C105.174 58.536 105.242 58.924 105.378 59.26C105.522 59.596 105.718 59.86 105.966 60.052C106.222 60.236 106.518 60.328 106.854 60.328ZM112.133 61.108C111.885 61.108 111.685 61.06 111.533 60.964C111.381 60.86 111.269 60.712 111.197 60.52C111.125 60.32 111.089 60.08 111.089 59.8V52.456H112.073V59.872C112.073 60.032 112.101 60.144 112.157 60.208C112.213 60.264 112.281 60.292 112.361 60.292C112.393 60.292 112.421 60.292 112.445 60.292C112.477 60.284 112.517 60.276 112.565 60.268L112.709 61.012C112.637 61.036 112.553 61.056 112.457 61.072C112.369 61.096 112.261 61.108 112.133 61.108ZM115.192 61.108C114.944 61.108 114.744 61.06 114.592 60.964C114.44 60.86 114.328 60.712 114.256 60.52C114.184 60.32 114.148 60.08 114.148 59.8V52.456H115.132V59.872C115.132 60.032 115.16 60.144 115.216 60.208C115.272 60.264 115.34 60.292 115.42 60.292C115.452 60.292 115.48 60.292 115.504 60.292C115.536 60.284 115.576 60.276 115.624 60.268L115.768 61.012C115.696 61.036 115.612 61.056 115.516 61.072C115.428 61.096 115.32 61.108 115.192 61.108ZM120.953 61.144C120.633 61.144 120.341 61.08 120.077 60.952C119.821 60.816 119.617 60.628 119.465 60.388C119.313 60.14 119.237 59.84 119.237 59.488C119.237 58.832 119.525 58.336 120.101 58C120.677 57.664 121.589 57.428 122.837 57.292C122.829 57.052 122.789 56.82 122.717 56.596C122.653 56.372 122.533 56.192 122.357 56.056C122.181 55.92 121.937 55.852 121.625 55.852C121.289 55.852 120.973 55.916 120.677 56.044C120.381 56.164 120.117 56.3 119.885 56.452L119.501 55.78C119.677 55.66 119.885 55.544 120.125 55.432C120.365 55.312 120.625 55.216 120.905 55.144C121.185 55.064 121.481 55.024 121.793 55.024C122.265 55.024 122.649 55.124 122.945 55.324C123.249 55.516 123.469 55.792 123.605 56.152C123.749 56.512 123.821 56.936 123.821 57.424V61H123.005L122.921 60.304H122.885C122.605 60.536 122.305 60.736 121.985 60.904C121.665 61.064 121.321 61.144 120.953 61.144ZM121.229 60.328C121.517 60.328 121.785 60.264 122.033 60.136C122.289 60.008 122.557 59.82 122.837 59.572V58C122.181 58.08 121.661 58.184 121.277 58.312C120.901 58.432 120.629 58.584 120.461 58.768C120.293 58.952 120.209 59.172 120.209 59.428C120.209 59.748 120.309 59.98 120.509 60.124C120.709 60.26 120.949 60.328 121.229 60.328ZM125.656 63.46V55.168H126.472L126.556 55.84H126.592C126.856 55.616 127.148 55.424 127.468 55.264C127.788 55.104 128.116 55.024 128.452 55.024C128.948 55.024 129.368 55.148 129.712 55.396C130.056 55.636 130.316 55.98 130.492 56.428C130.668 56.868 130.756 57.392 130.756 58C130.756 58.656 130.636 59.22 130.396 59.692C130.164 60.164 129.856 60.524 129.472 60.772C129.088 61.02 128.676 61.144 128.236 61.144C127.972 61.144 127.704 61.084 127.432 60.964C127.16 60.844 126.888 60.68 126.616 60.472L126.64 61.492V63.46H125.656ZM128.068 60.316C128.388 60.316 128.672 60.224 128.92 60.04C129.176 59.856 129.376 59.592 129.52 59.248C129.664 58.896 129.736 58.48 129.736 58C129.736 57.576 129.684 57.204 129.58 56.884C129.476 56.556 129.312 56.304 129.088 56.128C128.864 55.944 128.568 55.852 128.2 55.852C127.96 55.852 127.712 55.92 127.456 56.056C127.2 56.184 126.928 56.38 126.64 56.644V59.704C126.912 59.928 127.168 60.088 127.408 60.184C127.656 60.272 127.876 60.316 128.068 60.316ZM132.312 63.46V55.168H133.128L133.212 55.84H133.248C133.512 55.616 133.804 55.424 134.124 55.264C134.444 55.104 134.772 55.024 135.108 55.024C135.604 55.024 136.024 55.148 136.368 55.396C136.712 55.636 136.972 55.98 137.148 56.428C137.324 56.868 137.412 57.392 137.412 58C137.412 58.656 137.292 59.22 137.052 59.692C136.82 60.164 136.512 60.524 136.128 60.772C135.744 61.02 135.332 61.144 134.892 61.144C134.628 61.144 134.36 61.084 134.088 60.964C133.816 60.844 133.544 60.68 133.272 60.472L133.296 61.492V63.46H132.312ZM134.724 60.316C135.044 60.316 135.328 60.224 135.576 60.04C135.832 59.856 136.032 59.592 136.176 59.248C136.32 58.896 136.392 58.48 136.392 58C136.392 57.576 136.34 57.204 136.236 56.884C136.132 56.556 135.968 56.304 135.744 56.128C135.52 55.944 135.224 55.852 134.856 55.852C134.616 55.852 134.368 55.92 134.112 56.056C133.856 56.184 133.584 56.38 133.296 56.644V59.704C133.568 59.928 133.824 60.088 134.064 60.184C134.312 60.272 134.532 60.316 134.724 60.316ZM140.012 61.108C139.764 61.108 139.564 61.06 139.412 60.964C139.26 60.86 139.148 60.712 139.076 60.52C139.004 60.32 138.968 60.08 138.968 59.8V52.456H139.952V59.872C139.952 60.032 139.98 60.144 140.036 60.208C140.092 60.264 140.16 60.292 140.24 60.292C140.272 60.292 140.3 60.292 140.324 60.292C140.356 60.284 140.396 60.276 140.444 60.268L140.588 61.012C140.516 61.036 140.432 61.056 140.336 61.072C140.248 61.096 140.14 61.108 140.012 61.108ZM142.027 61V55.168H143.011V61H142.027ZM142.519 53.968C142.327 53.968 142.167 53.908 142.039 53.788C141.919 53.668 141.859 53.512 141.859 53.32C141.859 53.128 141.919 52.972 142.039 52.852C142.167 52.732 142.327 52.672 142.519 52.672C142.711 52.672 142.867 52.732 142.987 52.852C143.115 52.972 143.179 53.128 143.179 53.32C143.179 53.512 143.115 53.668 142.987 53.788C142.867 53.908 142.711 53.968 142.519 53.968ZM147.296 61.144C146.776 61.144 146.308 61.024 145.892 60.784C145.476 60.544 145.148 60.196 144.908 59.74C144.668 59.284 144.548 58.736 144.548 58.096C144.548 57.44 144.676 56.884 144.932 56.428C145.196 55.972 145.54 55.624 145.964 55.384C146.396 55.144 146.86 55.024 147.356 55.024C147.74 55.024 148.068 55.088 148.34 55.216C148.62 55.344 148.86 55.508 149.06 55.708L148.568 56.32C148.424 56.176 148.252 56.064 148.052 55.984C147.86 55.896 147.64 55.852 147.392 55.852C147.048 55.852 146.736 55.948 146.456 56.14C146.184 56.324 145.968 56.584 145.808 56.92C145.648 57.256 145.568 57.648 145.568 58.096C145.568 58.536 145.644 58.924 145.796 59.26C145.948 59.596 146.16 59.86 146.432 60.052C146.704 60.236 147.02 60.328 147.38 60.328C147.652 60.328 147.904 60.276 148.136 60.172C148.368 60.068 148.568 59.936 148.736 59.776L149.168 60.376C148.92 60.608 148.64 60.796 148.328 60.94C148.016 61.076 147.672 61.144 147.296 61.144ZM151.68 61.144C151.36 61.144 151.068 61.08 150.804 60.952C150.548 60.816 150.344 60.628 150.192 60.388C150.04 60.14 149.964 59.84 149.964 59.488C149.964 58.832 150.252 58.336 150.828 58C151.404 57.664 152.316 57.428 153.564 57.292C153.556 57.052 153.516 56.82 153.444 56.596C153.38 56.372 153.26 56.192 153.084 56.056C152.908 55.92 152.664 55.852 152.352 55.852C152.016 55.852 151.7 55.916 151.404 56.044C151.108 56.164 150.844 56.3 150.612 56.452L150.228 55.78C150.404 55.66 150.612 55.544 150.852 55.432C151.092 55.312 151.352 55.216 151.632 55.144C151.912 55.064 152.208 55.024 152.52 55.024C152.992 55.024 153.376 55.124 153.672 55.324C153.976 55.516 154.196 55.792 154.332 56.152C154.476 56.512 154.548 56.936 154.548 57.424V61H153.732L153.648 60.304H153.612C153.332 60.536 153.032 60.736 152.712 60.904C152.392 61.064 152.048 61.144 151.68 61.144ZM151.956 60.328C152.244 60.328 152.512 60.264 152.76 60.136C153.016 60.008 153.284 59.82 153.564 59.572V58C152.908 58.08 152.388 58.184 152.004 58.312C151.628 58.432 151.356 58.584 151.188 58.768C151.02 58.952 150.936 59.172 150.936 59.428C150.936 59.748 151.036 59.98 151.236 60.124C151.436 60.26 151.676 60.328 151.956 60.328ZM158.054 61.108C157.438 61.108 157.006 60.928 156.758 60.568C156.51 60.208 156.386 59.74 156.386 59.164V55.972H155.522V55.228L156.434 55.168L156.554 53.296H157.382V55.168H158.966V55.972H157.382V59.176C157.382 59.528 157.446 59.804 157.574 60.004C157.71 60.204 157.946 60.304 158.282 60.304C158.386 60.304 158.494 60.296 158.606 60.28C158.718 60.256 158.83 60.216 158.942 60.16L159.158 60.856C159.006 60.928 158.834 60.988 158.642 61.036C158.45 61.084 158.254 61.108 158.054 61.108ZM160.273 61V55.168H161.257V61H160.273ZM160.765 53.968C160.573 53.968 160.413 53.908 160.285 53.788C160.165 53.668 160.105 53.512 160.105 53.32C160.105 53.128 160.165 52.972 160.285 52.852C160.413 52.732 160.573 52.672 160.765 52.672C160.957 52.672 161.113 52.732 161.233 52.852C161.361 52.972 161.425 53.128 161.425 53.32C161.425 53.512 161.361 53.668 161.233 53.788C161.113 53.908 160.957 53.968 160.765 53.968ZM165.494 61.144C165.022 61.144 164.578 61.024 164.162 60.784C163.754 60.544 163.422 60.196 163.166 59.74C162.918 59.284 162.794 58.736 162.794 58.096C162.794 57.44 162.918 56.884 163.166 56.428C163.422 55.972 163.754 55.624 164.162 55.384C164.578 55.144 165.022 55.024 165.494 55.024C165.974 55.024 166.418 55.144 166.826 55.384C167.234 55.624 167.562 55.972 167.81 56.428C168.066 56.884 168.194 57.44 168.194 58.096C168.194 58.736 168.066 59.284 167.81 59.74C167.562 60.196 167.234 60.544 166.826 60.784C166.418 61.024 165.974 61.144 165.494 61.144ZM165.494 60.328C165.83 60.328 166.126 60.236 166.382 60.052C166.638 59.86 166.834 59.596 166.97 59.26C167.106 58.924 167.174 58.536 167.174 58.096C167.174 57.648 167.106 57.256 166.97 56.92C166.834 56.576 166.638 56.312 166.382 56.128C166.126 55.936 165.83 55.84 165.494 55.84C165.158 55.84 164.862 55.936 164.606 56.128C164.358 56.312 164.162 56.576 164.018 56.92C163.882 57.256 163.814 57.648 163.814 58.096C163.814 58.536 163.882 58.924 164.018 59.26C164.162 59.596 164.358 59.86 164.606 60.052C164.862 60.236 165.158 60.328 165.494 60.328ZM169.73 61V55.168H170.546L170.63 56.008H170.666C170.946 55.728 171.242 55.496 171.554 55.312C171.866 55.12 172.222 55.024 172.622 55.024C173.238 55.024 173.686 55.22 173.966 55.612C174.254 55.996 174.398 56.56 174.398 57.304V61H173.414V57.436C173.414 56.884 173.326 56.488 173.15 56.248C172.982 56 172.702 55.876 172.31 55.876C172.014 55.876 171.746 55.952 171.506 56.104C171.274 56.256 171.01 56.48 170.714 56.776V61H169.73ZM176.809 61.144C176.617 61.144 176.449 61.076 176.305 60.94C176.161 60.796 176.089 60.616 176.089 60.4C176.089 60.168 176.161 59.984 176.305 59.848C176.449 59.704 176.617 59.632 176.809 59.632C177.009 59.632 177.177 59.704 177.313 59.848C177.449 59.984 177.517 60.168 177.517 60.4C177.517 60.616 177.449 60.796 177.313 60.94C177.177 61.076 177.009 61.144 176.809 61.144ZM185.259 61.96V53.128H186.267V61.96H185.259ZM184.215 58.288C183.631 58.288 183.111 58.196 182.655 58.012C182.199 57.828 181.839 57.544 181.575 57.16C181.319 56.776 181.191 56.284 181.191 55.684C181.191 55.06 181.315 54.56 181.563 54.184C181.819 53.808 182.163 53.54 182.595 53.38C183.035 53.212 183.531 53.128 184.083 53.128H184.611V58.288H184.215Z" fill="#044453"/>
</g>
<defs>
<clipPath id="clip0_0_1">
<rect width="186" height="13" fill="white" transform="translate(8 51)"/>
</clipPath>
</defs>
</svg>
