<svg width="204" height="67" viewBox="0 0 204 67" fill="none"
    xmlns="http://www.w3.org/2000/svg">
    <path d="M0 23C0 11.9543 8.95431 3 20 3H132V28C132 39.0457 123.046 48 112 48H0V23Z" fill="#044453"/>
    <path d="M15.695 36V13.18H23.535C25.215 13.18 26.7317 13.4133 28.085 13.88C29.4617 14.3233 30.5583 15.0817 31.375 16.155C32.1917 17.2283 32.6 18.6867 32.6 20.53C32.6 22.3033 32.1917 23.7617 31.375 24.905C30.5583 26.0483 29.4733 26.9 28.12 27.46C26.7667 27.9967 25.285 28.265 23.675 28.265H20.84V36H15.695ZM20.84 24.17H23.36C24.7833 24.17 25.8333 23.855 26.51 23.225C27.21 22.595 27.56 21.6967 27.56 20.53C27.56 19.3167 27.1867 18.4767 26.44 18.01C25.6933 17.52 24.62 17.275 23.22 17.275H20.84V24.17ZM39.3375 36.42C38.2875 36.42 37.3658 36.1867 36.5725 35.72C35.8025 35.2533 35.2075 34.6233 34.7875 33.83C34.3675 33.0367 34.1575 32.15 34.1575 31.17C34.1575 29.3033 34.9275 27.8683 36.4675 26.865C38.0075 25.8383 40.4925 25.15 43.9225 24.8C43.8992 24.2867 43.7825 23.855 43.5725 23.505C43.3858 23.1317 43.0942 22.8517 42.6975 22.665C42.3008 22.455 41.7992 22.35 41.1925 22.35C40.4692 22.35 39.7342 22.4783 38.9875 22.735C38.2408 22.9917 37.4358 23.365 36.5725 23.855L34.7525 20.495C35.4992 20.0283 36.2692 19.6317 37.0625 19.305C37.8558 18.955 38.6725 18.6867 39.5125 18.5C40.3758 18.3133 41.2625 18.22 42.1725 18.22C43.6658 18.22 44.9142 18.5117 45.9175 19.095C46.9442 19.655 47.7258 20.5183 48.2625 21.685C48.7992 22.8283 49.0675 24.2983 49.0675 26.095V36H44.8675L44.5175 34.215H44.3775C43.6308 34.8683 42.8492 35.405 42.0325 35.825C41.2158 36.2217 40.3175 36.42 39.3375 36.42ZM41.0525 32.395C41.6358 32.395 42.1492 32.2667 42.5925 32.01C43.0358 31.7533 43.4792 31.4033 43.9225 30.96V28.02C42.7092 28.1833 41.7408 28.3933 41.0175 28.65C40.3175 28.9067 39.8158 29.2217 39.5125 29.595C39.2325 29.945 39.0925 30.3417 39.0925 30.785C39.0925 31.3217 39.2675 31.73 39.6175 32.01C39.9908 32.2667 40.4692 32.395 41.0525 32.395ZM55.3445 42.79C54.8312 42.79 54.3762 42.755 53.9795 42.685C53.6062 42.615 53.2445 42.51 52.8945 42.37L53.8045 38.59C54.0612 38.66 54.2712 38.695 54.4345 38.695C54.6212 38.7183 54.7962 38.73 54.9595 38.73C55.8229 38.73 56.4879 38.5083 56.9545 38.065C57.4445 37.645 57.7945 37.1083 58.0045 36.455L58.2495 35.545L51.5645 18.64H56.7445L59.2295 26.095C59.4862 26.8883 59.7195 27.6933 59.9295 28.51C60.1395 29.3267 60.3612 30.1667 60.5945 31.03H60.7345C60.9212 30.2133 61.1079 29.3967 61.2945 28.58C61.5045 27.74 61.7145 26.9117 61.9245 26.095L64.0245 18.64H68.9595L62.9395 36.175C62.3795 37.6217 61.7729 38.835 61.1195 39.815C60.4895 40.795 59.7079 41.53 58.7745 42.02C57.8645 42.5333 56.7212 42.79 55.3445 42.79ZM71.6715 36V18.64H75.8715L76.2215 21.685H76.3615C76.9915 20.5183 77.7382 19.655 78.6015 19.095C79.4882 18.5117 80.3865 18.22 81.2965 18.22C81.7865 18.22 82.1948 18.255 82.5215 18.325C82.8482 18.3717 83.1282 18.4533 83.3615 18.57L82.3815 22.945C82.1015 22.875 81.8332 22.8283 81.5765 22.805C81.3198 22.7583 81.0048 22.735 80.6315 22.735C79.9782 22.735 79.2898 22.9683 78.5665 23.435C77.8665 23.9017 77.2832 24.73 76.8165 25.92V36H71.6715ZM92.73 36.42C91.26 36.42 89.8833 36.07 88.6 35.37C87.3167 34.6467 86.2667 33.6083 85.45 32.255C84.6567 30.8783 84.26 29.2333 84.26 27.32C84.26 25.4067 84.6567 23.7733 85.45 22.42C86.2667 21.0433 87.3167 20.005 88.6 19.305C89.8833 18.5817 91.26 18.22 92.73 18.22C94.1767 18.22 95.5417 18.5817 96.825 19.305C98.1083 20.005 99.1467 21.0433 99.94 22.42C100.757 23.7733 101.165 25.4067 101.165 27.32C101.165 29.2333 100.757 30.8783 99.94 32.255C99.1467 33.6083 98.1083 34.6467 96.825 35.37C95.5417 36.07 94.1767 36.42 92.73 36.42ZM92.73 32.255C93.43 32.255 94.0133 32.0567 94.48 31.66C94.97 31.2633 95.3317 30.6917 95.565 29.945C95.7983 29.1983 95.915 28.3233 95.915 27.32C95.915 26.3167 95.7983 25.4417 95.565 24.695C95.3317 23.9483 94.97 23.3767 94.48 22.98C94.0133 22.5833 93.43 22.385 92.73 22.385C92.0067 22.385 91.4117 22.5833 90.945 22.98C90.4783 23.3767 90.1283 23.9483 89.895 24.695C89.6617 25.4417 89.545 26.3167 89.545 27.32C89.545 28.3233 89.6617 29.1983 89.895 29.945C90.1283 30.6917 90.4783 31.2633 90.945 31.66C91.4117 32.0567 92.0067 32.255 92.73 32.255ZM109.414 36.385C108.247 36.385 107.314 36.1517 106.614 35.685C105.937 35.195 105.447 34.5183 105.144 33.655C104.841 32.7683 104.689 31.7417 104.689 30.575V11.5H109.834V30.785C109.834 31.345 109.927 31.73 110.114 31.94C110.324 32.1267 110.546 32.22 110.779 32.22C110.872 32.22 110.954 32.22 111.024 32.22C111.117 32.1967 111.234 32.1733 111.374 32.15L112.004 35.965C111.724 36.0817 111.362 36.175 110.919 36.245C110.499 36.3383 109.997 36.385 109.414 36.385ZM119.429 36.385C118.262 36.385 117.329 36.1517 116.629 35.685C115.952 35.195 115.462 34.5183 115.159 33.655C114.855 32.7683 114.704 31.7417 114.704 30.575V11.5H119.849V30.785C119.849 31.345 119.942 31.73 120.129 31.94C120.339 32.1267 120.56 32.22 120.794 32.22C120.887 32.22 120.969 32.22 121.039 32.22C121.132 32.1967 121.249 32.1733 121.389 32.15L122.019 35.965C121.739 36.0817 121.377 36.175 120.934 36.245C120.514 36.3383 120.012 36.385 119.429 36.385Z" fill="white"/>
    <path d="M141.077 36L136.947 13.18H142.302L143.807 23.82C143.97 25.0333 144.122 26.2467 144.262 27.46C144.425 28.65 144.565 29.875 144.682 31.135H144.822C145.032 29.875 145.242 28.6383 145.452 27.425C145.685 26.2117 145.919 25.01 146.152 23.82L148.567 13.18H153.152L155.462 23.82C155.695 24.9867 155.929 26.1883 156.162 27.425C156.395 28.6383 156.617 29.875 156.827 31.135H156.967C157.084 29.875 157.212 28.6383 157.352 27.425C157.515 26.2117 157.667 25.01 157.807 23.82L159.417 13.18H164.457L160.362 36H153.712L151.577 25.64C151.414 24.7767 151.262 23.89 151.122 22.98C150.982 22.07 150.854 21.16 150.737 20.25H150.597C150.48 21.16 150.352 22.07 150.212 22.98C150.095 23.89 149.944 24.7767 149.757 25.64L147.622 36H141.077ZM174.974 36.42C173.317 36.42 171.824 36.0583 170.494 35.335C169.164 34.6117 168.114 33.5733 167.344 32.22C166.574 30.8667 166.189 29.2333 166.189 27.32C166.189 25.43 166.574 23.8083 167.344 22.455C168.137 21.1017 169.164 20.0633 170.424 19.34C171.684 18.5933 173.002 18.22 174.379 18.22C176.035 18.22 177.412 18.5933 178.509 19.34C179.605 20.0633 180.422 21.055 180.959 22.315C181.495 23.575 181.764 24.9867 181.764 26.55C181.764 26.9933 181.74 27.4367 181.694 27.88C181.647 28.3 181.6 28.6383 181.554 28.895H170.179L170.109 25.325H177.354C177.354 24.415 177.132 23.6683 176.689 23.085C176.245 22.4783 175.51 22.175 174.484 22.175C173.924 22.175 173.375 22.3267 172.839 22.63C172.302 22.9333 171.859 23.4583 171.509 24.205C171.159 24.9517 170.995 25.99 171.019 27.32C171.042 28.6267 171.275 29.6533 171.719 30.4C172.185 31.1467 172.769 31.6833 173.469 32.01C174.169 32.3133 174.904 32.465 175.674 32.465C176.35 32.465 176.992 32.3717 177.599 32.185C178.229 31.975 178.847 31.695 179.454 31.345L181.134 34.495C180.27 35.1017 179.29 35.58 178.194 35.93C177.097 36.2567 176.024 36.42 174.974 36.42ZM194.419 36.42C193.649 36.42 192.879 36.2333 192.109 35.86C191.339 35.4633 190.604 34.8917 189.904 34.145H189.764L189.344 36H185.319V11.465H190.464V17.485L190.324 20.145C190.977 19.5383 191.701 19.0717 192.494 18.745C193.287 18.395 194.092 18.22 194.909 18.22C196.309 18.22 197.522 18.5817 198.549 19.305C199.576 20.0283 200.357 21.055 200.894 22.385C201.454 23.6917 201.734 25.2317 201.734 27.005C201.734 28.9883 201.384 30.6917 200.684 32.115C199.984 33.515 199.074 34.5883 197.954 35.335C196.857 36.0583 195.679 36.42 194.419 36.42ZM193.229 32.22C193.812 32.22 194.349 32.045 194.839 31.695C195.352 31.345 195.749 30.7967 196.029 30.05C196.309 29.28 196.449 28.3 196.449 27.11C196.449 26.06 196.332 25.1967 196.099 24.52C195.889 23.82 195.562 23.295 195.119 22.945C194.676 22.595 194.116 22.42 193.439 22.42C192.926 22.42 192.424 22.5483 191.934 22.805C191.467 23.0383 190.977 23.435 190.464 23.995V31.1C190.907 31.4967 191.374 31.7883 191.864 31.975C192.354 32.1383 192.809 32.22 193.229 32.22Z" fill="#044453"/>
    <path d="M13.036 64L15.7 56.128H16.828L19.492 64H18.436L17.056 59.596C16.912 59.156 16.776 58.72 16.648 58.288C16.52 57.848 16.392 57.4 16.264 56.944H16.216C16.096 57.4 15.972 57.848 15.844 58.288C15.716 58.72 15.58 59.156 15.436 59.596L14.044 64H13.036ZM14.428 61.6V60.808H18.064V61.6H14.428ZM25.218 64.144C24.698 64.144 24.23 64.024 23.814 63.784C23.398 63.544 23.07 63.196 22.83 62.74C22.59 62.284 22.47 61.736 22.47 61.096C22.47 60.44 22.598 59.884 22.854 59.428C23.118 58.972 23.462 58.624 23.886 58.384C24.318 58.144 24.782 58.024 25.278 58.024C25.662 58.024 25.99 58.088 26.262 58.216C26.542 58.344 26.782 58.508 26.982 58.708L26.49 59.32C26.346 59.176 26.174 59.064 25.974 58.984C25.782 58.896 25.562 58.852 25.314 58.852C24.97 58.852 24.658 58.948 24.378 59.14C24.106 59.324 23.89 59.584 23.73 59.92C23.57 60.256 23.49 60.648 23.49 61.096C23.49 61.536 23.566 61.924 23.718 62.26C23.87 62.596 24.082 62.86 24.354 63.052C24.626 63.236 24.942 63.328 25.302 63.328C25.574 63.328 25.826 63.276 26.058 63.172C26.29 63.068 26.49 62.936 26.658 62.776L27.09 63.376C26.842 63.608 26.562 63.796 26.25 63.94C25.938 64.076 25.594 64.144 25.218 64.144ZM29.4186 64.108C29.1706 64.108 28.9706 64.06 28.8186 63.964C28.6666 63.86 28.5546 63.712 28.4826 63.52C28.4106 63.32 28.3746 63.08 28.3746 62.8V55.456H29.3586V62.872C29.3586 63.032 29.3866 63.144 29.4426 63.208C29.4986 63.264 29.5666 63.292 29.6466 63.292C29.6786 63.292 29.7066 63.292 29.7306 63.292C29.7626 63.284 29.8026 63.276 29.8506 63.268L29.9946 64.012C29.9226 64.036 29.8386 64.056 29.7426 64.072C29.6546 64.096 29.5466 64.108 29.4186 64.108ZM33.7012 64.144C33.2292 64.144 32.7852 64.024 32.3692 63.784C31.9612 63.544 31.6292 63.196 31.3732 62.74C31.1252 62.284 31.0012 61.736 31.0012 61.096C31.0012 60.44 31.1252 59.884 31.3732 59.428C31.6292 58.972 31.9612 58.624 32.3692 58.384C32.7852 58.144 33.2292 58.024 33.7012 58.024C34.1812 58.024 34.6252 58.144 35.0332 58.384C35.4412 58.624 35.7692 58.972 36.0172 59.428C36.2732 59.884 36.4012 60.44 36.4012 61.096C36.4012 61.736 36.2732 62.284 36.0172 62.74C35.7692 63.196 35.4412 63.544 35.0332 63.784C34.6252 64.024 34.1812 64.144 33.7012 64.144ZM33.7012 63.328C34.0372 63.328 34.3332 63.236 34.5892 63.052C34.8452 62.86 35.0412 62.596 35.1772 62.26C35.3132 61.924 35.3812 61.536 35.3812 61.096C35.3812 60.648 35.3132 60.256 35.1772 59.92C35.0412 59.576 34.8452 59.312 34.5892 59.128C34.3332 58.936 34.0372 58.84 33.7012 58.84C33.3652 58.84 33.0692 58.936 32.8132 59.128C32.5652 59.312 32.3692 59.576 32.2252 59.92C32.0892 60.256 32.0212 60.648 32.0212 61.096C32.0212 61.536 32.0892 61.924 32.2252 62.26C32.3692 62.596 32.5652 62.86 32.8132 63.052C33.0692 63.236 33.3652 63.328 33.7012 63.328ZM39.6411 64.144C39.0251 64.144 38.5731 63.952 38.2851 63.568C38.0051 63.176 37.8651 62.608 37.8651 61.864V58.168H38.8491V61.732C38.8491 62.276 38.9331 62.672 39.1011 62.92C39.2771 63.16 39.5571 63.28 39.9411 63.28C40.2371 63.28 40.5011 63.204 40.7331 63.052C40.9731 62.892 41.2331 62.644 41.5131 62.308V58.168H42.4971V64H41.6811L41.5971 63.088H41.5611C41.2971 63.408 41.0091 63.664 40.6971 63.856C40.3931 64.048 40.0411 64.144 39.6411 64.144ZM46.4565 64.144C45.7205 64.144 45.1325 63.88 44.6925 63.352C44.2605 62.816 44.0445 62.064 44.0445 61.096C44.0445 60.464 44.1605 59.92 44.3925 59.464C44.6325 59 44.9445 58.644 45.3285 58.396C45.7125 58.148 46.1285 58.024 46.5765 58.024C46.9205 58.024 47.2125 58.084 47.4525 58.204C47.7005 58.316 47.9525 58.48 48.2085 58.696L48.1605 57.7V55.456H49.1565V64H48.3405L48.2565 63.316H48.2205C47.9965 63.54 47.7325 63.736 47.4285 63.904C47.1245 64.064 46.8005 64.144 46.4565 64.144ZM46.6725 63.316C46.9445 63.316 47.2005 63.248 47.4405 63.112C47.6805 62.976 47.9205 62.776 48.1605 62.512V59.464C47.9205 59.24 47.6845 59.084 47.4525 58.996C47.2205 58.9 46.9845 58.852 46.7445 58.852C46.4325 58.852 46.1485 58.948 45.8925 59.14C45.6445 59.324 45.4445 59.584 45.2925 59.92C45.1405 60.248 45.0645 60.636 45.0645 61.084C45.0645 61.78 45.2045 62.328 45.4845 62.728C45.7645 63.12 46.1605 63.316 46.6725 63.316ZM50.6287 61.372V60.616H53.3887V61.372H50.6287ZM57.4273 64.144C57.1553 64.144 56.8753 64.08 56.5873 63.952C56.2993 63.816 56.0233 63.632 55.7593 63.4H55.7233L55.6393 64H54.8473V55.456H55.8313V57.784L55.8073 58.84C56.0713 58.608 56.3593 58.416 56.6713 58.264C56.9913 58.104 57.3113 58.024 57.6313 58.024C58.1353 58.024 58.5593 58.148 58.9033 58.396C59.2473 58.636 59.5073 58.98 59.6833 59.428C59.8593 59.868 59.9473 60.388 59.9473 60.988C59.9473 61.652 59.8273 62.22 59.5873 62.692C59.3553 63.164 59.0473 63.524 58.6633 63.772C58.2793 64.02 57.8673 64.144 57.4273 64.144ZM57.2593 63.316C57.5793 63.316 57.8633 63.224 58.1113 63.04C58.3673 62.856 58.5673 62.592 58.7113 62.248C58.8553 61.896 58.9273 61.48 58.9273 61C58.9273 60.576 58.8753 60.204 58.7713 59.884C58.6673 59.556 58.5033 59.304 58.2793 59.128C58.0553 58.944 57.7593 58.852 57.3913 58.852C57.1513 58.852 56.8993 58.92 56.6353 59.056C56.3793 59.184 56.1113 59.38 55.8313 59.644V62.704C56.0873 62.928 56.3393 63.088 56.5873 63.184C56.8433 63.272 57.0673 63.316 57.2593 63.316ZM62.66 64.144C62.34 64.144 62.048 64.08 61.784 63.952C61.528 63.816 61.324 63.628 61.172 63.388C61.02 63.14 60.944 62.84 60.944 62.488C60.944 61.832 61.232 61.336 61.808 61C62.384 60.664 63.296 60.428 64.544 60.292C64.536 60.052 64.496 59.82 64.424 59.596C64.36 59.372 64.24 59.192 64.064 59.056C63.888 58.92 63.644 58.852 63.332 58.852C62.996 58.852 62.68 58.916 62.384 59.044C62.088 59.164 61.824 59.3 61.592 59.452L61.208 58.78C61.384 58.66 61.592 58.544 61.832 58.432C62.072 58.312 62.332 58.216 62.612 58.144C62.892 58.064 63.188 58.024 63.5 58.024C63.972 58.024 64.356 58.124 64.652 58.324C64.956 58.516 65.176 58.792 65.312 59.152C65.456 59.512 65.528 59.936 65.528 60.424V64H64.712L64.628 63.304H64.592C64.312 63.536 64.012 63.736 63.692 63.904C63.372 64.064 63.028 64.144 62.66 64.144ZM62.936 63.328C63.224 63.328 63.492 63.264 63.74 63.136C63.996 63.008 64.264 62.82 64.544 62.572V61C63.888 61.08 63.368 61.184 62.984 61.312C62.608 61.432 62.336 61.584 62.168 61.768C62 61.952 61.916 62.172 61.916 62.428C61.916 62.748 62.016 62.98 62.216 63.124C62.416 63.26 62.656 63.328 62.936 63.328ZM68.8869 64.144C68.4629 64.144 68.0589 64.072 67.6749 63.928C67.2989 63.776 66.9789 63.568 66.7149 63.304L67.1709 62.728C67.4269 62.936 67.6909 63.096 67.9629 63.208C68.2429 63.32 68.5629 63.376 68.9229 63.376C69.3069 63.376 69.5949 63.288 69.7869 63.112C69.9789 62.928 70.0749 62.712 70.0749 62.464C70.0749 62.264 70.0069 62.1 69.8709 61.972C69.7429 61.836 69.5789 61.724 69.3789 61.636C69.1869 61.54 68.9789 61.452 68.7549 61.372C68.4669 61.268 68.1909 61.148 67.9269 61.012C67.6629 60.868 67.4469 60.692 67.2789 60.484C67.1189 60.268 67.0389 60 67.0389 59.68C67.0389 59.208 67.2149 58.816 67.5669 58.504C67.9269 58.184 68.4229 58.024 69.0549 58.024C69.4149 58.024 69.7509 58.088 70.0629 58.216C70.3749 58.336 70.6429 58.492 70.8669 58.684L70.4109 59.248C70.2029 59.104 69.9909 58.992 69.7749 58.912C69.5589 58.832 69.3189 58.792 69.0549 58.792C68.6869 58.792 68.4149 58.876 68.2389 59.044C68.0709 59.212 67.9869 59.408 67.9869 59.632C67.9869 59.808 68.0389 59.956 68.1429 60.076C68.2469 60.188 68.3909 60.288 68.5749 60.376C68.7669 60.464 68.9829 60.548 69.2229 60.628C69.5269 60.74 69.8149 60.868 70.0869 61.012C70.3669 61.148 70.5909 61.328 70.7589 61.552C70.9349 61.768 71.0229 62.052 71.0229 62.404C71.0229 62.724 70.9389 63.016 70.7709 63.28C70.6109 63.536 70.3709 63.744 70.0509 63.904C69.7389 64.064 69.3509 64.144 68.8869 64.144ZM74.7543 64.144C74.2343 64.144 73.7583 64.024 73.3263 63.784C72.9023 63.536 72.5663 63.188 72.3183 62.74C72.0703 62.284 71.9463 61.732 71.9463 61.084C71.9463 60.452 72.0743 59.908 72.3303 59.452C72.5863 58.996 72.9143 58.644 73.3143 58.396C73.7143 58.148 74.1383 58.024 74.5863 58.024C75.0823 58.024 75.5023 58.14 75.8463 58.372C76.1983 58.596 76.4623 58.912 76.6383 59.32C76.8143 59.728 76.9023 60.208 76.9023 60.76C76.9023 60.864 76.8983 60.964 76.8903 61.06C76.8903 61.156 76.8783 61.252 76.8543 61.348H72.6543V60.568H76.0143C76.0143 60.008 75.8903 59.58 75.6423 59.284C75.4023 58.98 75.0543 58.828 74.5983 58.828C74.3343 58.828 74.0743 58.904 73.8183 59.056C73.5623 59.2 73.3503 59.436 73.1823 59.764C73.0223 60.092 72.9423 60.528 72.9423 61.072C72.9423 61.568 73.0263 61.984 73.1943 62.32C73.3703 62.656 73.6063 62.912 73.9023 63.088C74.1983 63.256 74.5223 63.34 74.8743 63.34C75.1543 63.34 75.4143 63.3 75.6543 63.22C75.9023 63.14 76.1263 63.032 76.3263 62.896L76.6863 63.544C76.4303 63.72 76.1423 63.864 75.8223 63.976C75.5103 64.088 75.1543 64.144 74.7543 64.144ZM80.3354 64.144C79.5994 64.144 79.0114 63.88 78.5714 63.352C78.1394 62.816 77.9234 62.064 77.9234 61.096C77.9234 60.464 78.0394 59.92 78.2714 59.464C78.5114 59 78.8234 58.644 79.2074 58.396C79.5914 58.148 80.0074 58.024 80.4554 58.024C80.7994 58.024 81.0914 58.084 81.3314 58.204C81.5794 58.316 81.8314 58.48 82.0874 58.696L82.0394 57.7V55.456H83.0354V64H82.2194L82.1354 63.316H82.0994C81.8754 63.54 81.6114 63.736 81.3074 63.904C81.0034 64.064 80.6794 64.144 80.3354 64.144ZM80.5514 63.316C80.8234 63.316 81.0794 63.248 81.3194 63.112C81.5594 62.976 81.7994 62.776 82.0394 62.512V59.464C81.7994 59.24 81.5634 59.084 81.3314 58.996C81.0994 58.9 80.8634 58.852 80.6234 58.852C80.3114 58.852 80.0274 58.948 79.7714 59.14C79.5234 59.324 79.3234 59.584 79.1714 59.92C79.0194 60.248 78.9434 60.636 78.9434 61.084C78.9434 61.78 79.0834 62.328 79.3634 62.728C79.6434 63.12 80.0394 63.316 80.5514 63.316ZM87.402 66.46V58.168H88.218L88.302 58.84H88.338C88.602 58.616 88.894 58.424 89.214 58.264C89.534 58.104 89.862 58.024 90.198 58.024C90.694 58.024 91.114 58.148 91.458 58.396C91.802 58.636 92.062 58.98 92.238 59.428C92.414 59.868 92.502 60.392 92.502 61C92.502 61.656 92.382 62.22 92.142 62.692C91.91 63.164 91.602 63.524 91.218 63.772C90.834 64.02 90.422 64.144 89.982 64.144C89.718 64.144 89.45 64.084 89.178 63.964C88.906 63.844 88.634 63.68 88.362 63.472L88.386 64.492V66.46H87.402ZM89.814 63.316C90.134 63.316 90.418 63.224 90.666 63.04C90.922 62.856 91.122 62.592 91.266 62.248C91.41 61.896 91.482 61.48 91.482 61C91.482 60.576 91.43 60.204 91.326 59.884C91.222 59.556 91.058 59.304 90.834 59.128C90.61 58.944 90.314 58.852 89.946 58.852C89.706 58.852 89.458 58.92 89.202 59.056C88.946 59.184 88.674 59.38 88.386 59.644V62.704C88.658 62.928 88.914 63.088 89.154 63.184C89.402 63.272 89.622 63.316 89.814 63.316ZM95.2382 64.144C94.9182 64.144 94.6262 64.08 94.3622 63.952C94.1062 63.816 93.9022 63.628 93.7502 63.388C93.5982 63.14 93.5222 62.84 93.5222 62.488C93.5222 61.832 93.8102 61.336 94.3862 61C94.9622 60.664 95.8742 60.428 97.1222 60.292C97.1142 60.052 97.0742 59.82 97.0022 59.596C96.9382 59.372 96.8182 59.192 96.6422 59.056C96.4662 58.92 96.2222 58.852 95.9102 58.852C95.5742 58.852 95.2582 58.916 94.9622 59.044C94.6662 59.164 94.4022 59.3 94.1702 59.452L93.7862 58.78C93.9622 58.66 94.1702 58.544 94.4102 58.432C94.6502 58.312 94.9102 58.216 95.1902 58.144C95.4702 58.064 95.7662 58.024 96.0782 58.024C96.5502 58.024 96.9342 58.124 97.2302 58.324C97.5342 58.516 97.7542 58.792 97.8902 59.152C98.0342 59.512 98.1062 59.936 98.1062 60.424V64H97.2902L97.2062 63.304H97.1702C96.8902 63.536 96.5902 63.736 96.2702 63.904C95.9502 64.064 95.6062 64.144 95.2382 64.144ZM95.5142 63.328C95.8022 63.328 96.0702 63.264 96.3182 63.136C96.5742 63.008 96.8422 62.82 97.1222 62.572V61C96.4662 61.08 95.9462 61.184 95.5622 61.312C95.1862 61.432 94.9142 61.584 94.7462 61.768C94.5782 61.952 94.4942 62.172 94.4942 62.428C94.4942 62.748 94.5942 62.98 94.7942 63.124C94.9942 63.26 95.2342 63.328 95.5142 63.328ZM100.037 66.508C99.909 66.508 99.785 66.496 99.665 66.472C99.553 66.448 99.449 66.42 99.353 66.388L99.569 65.62C99.641 65.644 99.713 65.66 99.785 65.668C99.857 65.684 99.925 65.692 99.989 65.692C100.325 65.692 100.597 65.572 100.805 65.332C101.021 65.1 101.189 64.804 101.309 64.444L101.441 64.012L99.101 58.168H100.121L101.309 61.396C101.405 61.644 101.501 61.912 101.597 62.2C101.693 62.488 101.785 62.768 101.873 63.04H101.921C102.009 62.768 102.093 62.492 102.173 62.212C102.261 61.924 102.341 61.652 102.413 61.396L103.457 58.168H104.417L102.221 64.48C102.085 64.864 101.921 65.208 101.729 65.512C101.537 65.824 101.305 66.068 101.033 66.244C100.761 66.42 100.429 66.508 100.037 66.508ZM105.543 64V58.168H106.359L106.443 59.224H106.479C106.671 58.856 106.911 58.564 107.199 58.348C107.487 58.132 107.799 58.024 108.135 58.024C108.263 58.024 108.375 58.032 108.471 58.048C108.567 58.064 108.663 58.096 108.759 58.144L108.543 58.984C108.455 58.96 108.371 58.944 108.291 58.936C108.219 58.92 108.123 58.912 108.003 58.912C107.755 58.912 107.495 59.012 107.223 59.212C106.959 59.412 106.727 59.76 106.527 60.256V64H105.543ZM111.854 64.144C111.382 64.144 110.938 64.024 110.522 63.784C110.114 63.544 109.782 63.196 109.526 62.74C109.278 62.284 109.154 61.736 109.154 61.096C109.154 60.44 109.278 59.884 109.526 59.428C109.782 58.972 110.114 58.624 110.522 58.384C110.938 58.144 111.382 58.024 111.854 58.024C112.334 58.024 112.778 58.144 113.186 58.384C113.594 58.624 113.922 58.972 114.17 59.428C114.426 59.884 114.554 60.44 114.554 61.096C114.554 61.736 114.426 62.284 114.17 62.74C113.922 63.196 113.594 63.544 113.186 63.784C112.778 64.024 112.334 64.144 111.854 64.144ZM111.854 63.328C112.19 63.328 112.486 63.236 112.742 63.052C112.998 62.86 113.194 62.596 113.33 62.26C113.466 61.924 113.534 61.536 113.534 61.096C113.534 60.648 113.466 60.256 113.33 59.92C113.194 59.576 112.998 59.312 112.742 59.128C112.486 58.936 112.19 58.84 111.854 58.84C111.518 58.84 111.222 58.936 110.966 59.128C110.718 59.312 110.522 59.576 110.378 59.92C110.242 60.256 110.174 60.648 110.174 61.096C110.174 61.536 110.242 61.924 110.378 62.26C110.522 62.596 110.718 62.86 110.966 63.052C111.222 63.236 111.518 63.328 111.854 63.328ZM117.133 64.108C116.885 64.108 116.685 64.06 116.533 63.964C116.381 63.86 116.269 63.712 116.197 63.52C116.125 63.32 116.089 63.08 116.089 62.8V55.456H117.073V62.872C117.073 63.032 117.101 63.144 117.157 63.208C117.213 63.264 117.281 63.292 117.361 63.292C117.393 63.292 117.421 63.292 117.445 63.292C117.477 63.284 117.517 63.276 117.565 63.268L117.709 64.012C117.637 64.036 117.553 64.056 117.457 64.072C117.369 64.096 117.261 64.108 117.133 64.108ZM120.192 64.108C119.944 64.108 119.744 64.06 119.592 63.964C119.44 63.86 119.328 63.712 119.256 63.52C119.184 63.32 119.148 63.08 119.148 62.8V55.456H120.132V62.872C120.132 63.032 120.16 63.144 120.216 63.208C120.272 63.264 120.34 63.292 120.42 63.292C120.452 63.292 120.48 63.292 120.504 63.292C120.536 63.284 120.576 63.276 120.624 63.268L120.768 64.012C120.696 64.036 120.612 64.056 120.516 64.072C120.428 64.096 120.32 64.108 120.192 64.108ZM125.953 64.144C125.633 64.144 125.341 64.08 125.077 63.952C124.821 63.816 124.617 63.628 124.465 63.388C124.313 63.14 124.237 62.84 124.237 62.488C124.237 61.832 124.525 61.336 125.101 61C125.677 60.664 126.589 60.428 127.837 60.292C127.829 60.052 127.789 59.82 127.717 59.596C127.653 59.372 127.533 59.192 127.357 59.056C127.181 58.92 126.937 58.852 126.625 58.852C126.289 58.852 125.973 58.916 125.677 59.044C125.381 59.164 125.117 59.3 124.885 59.452L124.501 58.78C124.677 58.66 124.885 58.544 125.125 58.432C125.365 58.312 125.625 58.216 125.905 58.144C126.185 58.064 126.481 58.024 126.793 58.024C127.265 58.024 127.649 58.124 127.945 58.324C128.249 58.516 128.469 58.792 128.605 59.152C128.749 59.512 128.821 59.936 128.821 60.424V64H128.005L127.921 63.304H127.885C127.605 63.536 127.305 63.736 126.985 63.904C126.665 64.064 126.321 64.144 125.953 64.144ZM126.229 63.328C126.517 63.328 126.785 63.264 127.033 63.136C127.289 63.008 127.557 62.82 127.837 62.572V61C127.181 61.08 126.661 61.184 126.277 61.312C125.901 61.432 125.629 61.584 125.461 61.768C125.293 61.952 125.209 62.172 125.209 62.428C125.209 62.748 125.309 62.98 125.509 63.124C125.709 63.26 125.949 63.328 126.229 63.328ZM130.656 66.46V58.168H131.472L131.556 58.84H131.592C131.856 58.616 132.148 58.424 132.468 58.264C132.788 58.104 133.116 58.024 133.452 58.024C133.948 58.024 134.368 58.148 134.712 58.396C135.056 58.636 135.316 58.98 135.492 59.428C135.668 59.868 135.756 60.392 135.756 61C135.756 61.656 135.636 62.22 135.396 62.692C135.164 63.164 134.856 63.524 134.472 63.772C134.088 64.02 133.676 64.144 133.236 64.144C132.972 64.144 132.704 64.084 132.432 63.964C132.16 63.844 131.888 63.68 131.616 63.472L131.64 64.492V66.46H130.656ZM133.068 63.316C133.388 63.316 133.672 63.224 133.92 63.04C134.176 62.856 134.376 62.592 134.52 62.248C134.664 61.896 134.736 61.48 134.736 61C134.736 60.576 134.684 60.204 134.58 59.884C134.476 59.556 134.312 59.304 134.088 59.128C133.864 58.944 133.568 58.852 133.2 58.852C132.96 58.852 132.712 58.92 132.456 59.056C132.2 59.184 131.928 59.38 131.64 59.644V62.704C131.912 62.928 132.168 63.088 132.408 63.184C132.656 63.272 132.876 63.316 133.068 63.316ZM137.312 66.46V58.168H138.128L138.212 58.84H138.248C138.512 58.616 138.804 58.424 139.124 58.264C139.444 58.104 139.772 58.024 140.108 58.024C140.604 58.024 141.024 58.148 141.368 58.396C141.712 58.636 141.972 58.98 142.148 59.428C142.324 59.868 142.412 60.392 142.412 61C142.412 61.656 142.292 62.22 142.052 62.692C141.82 63.164 141.512 63.524 141.128 63.772C140.744 64.02 140.332 64.144 139.892 64.144C139.628 64.144 139.36 64.084 139.088 63.964C138.816 63.844 138.544 63.68 138.272 63.472L138.296 64.492V66.46H137.312ZM139.724 63.316C140.044 63.316 140.328 63.224 140.576 63.04C140.832 62.856 141.032 62.592 141.176 62.248C141.32 61.896 141.392 61.48 141.392 61C141.392 60.576 141.34 60.204 141.236 59.884C141.132 59.556 140.968 59.304 140.744 59.128C140.52 58.944 140.224 58.852 139.856 58.852C139.616 58.852 139.368 58.92 139.112 59.056C138.856 59.184 138.584 59.38 138.296 59.644V62.704C138.568 62.928 138.824 63.088 139.064 63.184C139.312 63.272 139.532 63.316 139.724 63.316ZM145.012 64.108C144.764 64.108 144.564 64.06 144.412 63.964C144.26 63.86 144.148 63.712 144.076 63.52C144.004 63.32 143.968 63.08 143.968 62.8V55.456H144.952V62.872C144.952 63.032 144.98 63.144 145.036 63.208C145.092 63.264 145.16 63.292 145.24 63.292C145.272 63.292 145.3 63.292 145.324 63.292C145.356 63.284 145.396 63.276 145.444 63.268L145.588 64.012C145.516 64.036 145.432 64.056 145.336 64.072C145.248 64.096 145.14 64.108 145.012 64.108ZM147.027 64V58.168H148.011V64H147.027ZM147.519 56.968C147.327 56.968 147.167 56.908 147.039 56.788C146.919 56.668 146.859 56.512 146.859 56.32C146.859 56.128 146.919 55.972 147.039 55.852C147.167 55.732 147.327 55.672 147.519 55.672C147.711 55.672 147.867 55.732 147.987 55.852C148.115 55.972 148.179 56.128 148.179 56.32C148.179 56.512 148.115 56.668 147.987 56.788C147.867 56.908 147.711 56.968 147.519 56.968ZM152.296 64.144C151.776 64.144 151.308 64.024 150.892 63.784C150.476 63.544 150.148 63.196 149.908 62.74C149.668 62.284 149.548 61.736 149.548 61.096C149.548 60.44 149.676 59.884 149.932 59.428C150.196 58.972 150.54 58.624 150.964 58.384C151.396 58.144 151.86 58.024 152.356 58.024C152.74 58.024 153.068 58.088 153.34 58.216C153.62 58.344 153.86 58.508 154.06 58.708L153.568 59.32C153.424 59.176 153.252 59.064 153.052 58.984C152.86 58.896 152.64 58.852 152.392 58.852C152.048 58.852 151.736 58.948 151.456 59.14C151.184 59.324 150.968 59.584 150.808 59.92C150.648 60.256 150.568 60.648 150.568 61.096C150.568 61.536 150.644 61.924 150.796 62.26C150.948 62.596 151.16 62.86 151.432 63.052C151.704 63.236 152.02 63.328 152.38 63.328C152.652 63.328 152.904 63.276 153.136 63.172C153.368 63.068 153.568 62.936 153.736 62.776L154.168 63.376C153.92 63.608 153.64 63.796 153.328 63.94C153.016 64.076 152.672 64.144 152.296 64.144ZM156.68 64.144C156.36 64.144 156.068 64.08 155.804 63.952C155.548 63.816 155.344 63.628 155.192 63.388C155.04 63.14 154.964 62.84 154.964 62.488C154.964 61.832 155.252 61.336 155.828 61C156.404 60.664 157.316 60.428 158.564 60.292C158.556 60.052 158.516 59.82 158.444 59.596C158.38 59.372 158.26 59.192 158.084 59.056C157.908 58.92 157.664 58.852 157.352 58.852C157.016 58.852 156.7 58.916 156.404 59.044C156.108 59.164 155.844 59.3 155.612 59.452L155.228 58.78C155.404 58.66 155.612 58.544 155.852 58.432C156.092 58.312 156.352 58.216 156.632 58.144C156.912 58.064 157.208 58.024 157.52 58.024C157.992 58.024 158.376 58.124 158.672 58.324C158.976 58.516 159.196 58.792 159.332 59.152C159.476 59.512 159.548 59.936 159.548 60.424V64H158.732L158.648 63.304H158.612C158.332 63.536 158.032 63.736 157.712 63.904C157.392 64.064 157.048 64.144 156.68 64.144ZM156.956 63.328C157.244 63.328 157.512 63.264 157.76 63.136C158.016 63.008 158.284 62.82 158.564 62.572V61C157.908 61.08 157.388 61.184 157.004 61.312C156.628 61.432 156.356 61.584 156.188 61.768C156.02 61.952 155.936 62.172 155.936 62.428C155.936 62.748 156.036 62.98 156.236 63.124C156.436 63.26 156.676 63.328 156.956 63.328ZM163.054 64.108C162.438 64.108 162.006 63.928 161.758 63.568C161.51 63.208 161.386 62.74 161.386 62.164V58.972H160.522V58.228L161.434 58.168L161.554 56.296H162.382V58.168H163.966V58.972H162.382V62.176C162.382 62.528 162.446 62.804 162.574 63.004C162.71 63.204 162.946 63.304 163.282 63.304C163.386 63.304 163.494 63.296 163.606 63.28C163.718 63.256 163.83 63.216 163.942 63.16L164.158 63.856C164.006 63.928 163.834 63.988 163.642 64.036C163.45 64.084 163.254 64.108 163.054 64.108ZM165.273 64V58.168H166.257V64H165.273ZM165.765 56.968C165.573 56.968 165.413 56.908 165.285 56.788C165.165 56.668 165.105 56.512 165.105 56.32C165.105 56.128 165.165 55.972 165.285 55.852C165.413 55.732 165.573 55.672 165.765 55.672C165.957 55.672 166.113 55.732 166.233 55.852C166.361 55.972 166.425 56.128 166.425 56.32C166.425 56.512 166.361 56.668 166.233 56.788C166.113 56.908 165.957 56.968 165.765 56.968ZM170.494 64.144C170.022 64.144 169.578 64.024 169.162 63.784C168.754 63.544 168.422 63.196 168.166 62.74C167.918 62.284 167.794 61.736 167.794 61.096C167.794 60.44 167.918 59.884 168.166 59.428C168.422 58.972 168.754 58.624 169.162 58.384C169.578 58.144 170.022 58.024 170.494 58.024C170.974 58.024 171.418 58.144 171.826 58.384C172.234 58.624 172.562 58.972 172.81 59.428C173.066 59.884 173.194 60.44 173.194 61.096C173.194 61.736 173.066 62.284 172.81 62.74C172.562 63.196 172.234 63.544 171.826 63.784C171.418 64.024 170.974 64.144 170.494 64.144ZM170.494 63.328C170.83 63.328 171.126 63.236 171.382 63.052C171.638 62.86 171.834 62.596 171.97 62.26C172.106 61.924 172.174 61.536 172.174 61.096C172.174 60.648 172.106 60.256 171.97 59.92C171.834 59.576 171.638 59.312 171.382 59.128C171.126 58.936 170.83 58.84 170.494 58.84C170.158 58.84 169.862 58.936 169.606 59.128C169.358 59.312 169.162 59.576 169.018 59.92C168.882 60.256 168.814 60.648 168.814 61.096C168.814 61.536 168.882 61.924 169.018 62.26C169.162 62.596 169.358 62.86 169.606 63.052C169.862 63.236 170.158 63.328 170.494 63.328ZM174.73 64V58.168H175.546L175.63 59.008H175.666C175.946 58.728 176.242 58.496 176.554 58.312C176.866 58.12 177.222 58.024 177.622 58.024C178.238 58.024 178.686 58.22 178.966 58.612C179.254 58.996 179.398 59.56 179.398 60.304V64H178.414V60.436C178.414 59.884 178.326 59.488 178.15 59.248C177.982 59 177.702 58.876 177.31 58.876C177.014 58.876 176.746 58.952 176.506 59.104C176.274 59.256 176.01 59.48 175.714 59.776V64H174.73ZM181.809 64.144C181.617 64.144 181.449 64.076 181.305 63.94C181.161 63.796 181.089 63.616 181.089 63.4C181.089 63.168 181.161 62.984 181.305 62.848C181.449 62.704 181.617 62.632 181.809 62.632C182.009 62.632 182.177 62.704 182.313 62.848C182.449 62.984 182.517 63.168 182.517 63.4C182.517 63.616 182.449 63.796 182.313 63.94C182.177 64.076 182.009 64.144 181.809 64.144ZM190.259 64.96V56.128H191.267V64.96H190.259ZM189.215 61.288C188.631 61.288 188.111 61.196 187.655 61.012C187.199 60.828 186.839 60.544 186.575 60.16C186.319 59.776 186.191 59.284 186.191 58.684C186.191 58.06 186.315 57.56 186.563 57.184C186.819 56.808 187.163 56.54 187.595 56.38C188.035 56.212 188.531 56.128 189.083 56.128H189.611V61.288H189.215Z" fill="#044453"/>
</svg>
